<svg width="243" height="54" viewBox="0 0 243 54" fill="none" xmlns="http://www.w3.org/2000/svg">
<g clip-path="url(#clip0_41_330)">
<mask id="mask0_41_330" style="mask-type:luminance" maskUnits="userSpaceOnUse" x="0" y="0" width="54" height="54">
<path d="M54 0H0V54H54V0Z" fill="white"/>
</mask>
<g mask="url(#mask0_41_330)">
<path d="M52.39 24.9979C52.1468 23.0657 51.7517 21.1465 51.0743 19.3184C51.0787 19.0926 52.4248 18.1026 51.5519 16.5655C50.8876 15.3887 49.5242 15.7361 49.3982 15.6102C48.7991 14.4031 48.0348 13.2871 47.2445 12.2016C48.2866 10.4039 46.5845 8.30662 44.7043 9.30097C43.8562 8.41522 43.0094 7.52797 42.1642 6.63922C42.8589 4.5246 40.5228 2.92665 38.9032 4.45515C37.6787 3.89497 36.4064 3.43905 35.1646 2.931C35.1342 0.855446 32.4507 0.195446 31.426 2.00617C30.6097 1.9251 29.7919 1.84545 28.9726 1.7673C28.7729 0.573221 27.7872 -0.173629 26.5801 0.0347962C25.8116 0.169421 25.2036 1.04655 25.0256 1.7673C24.2296 1.86577 23.432 1.9656 22.6331 2.06692C21.5996 0.143322 18.9509 0.851096 18.8641 2.9658C17.6887 3.4434 16.5121 3.9225 15.3339 4.40302C15.2731 4.42327 15.2137 4.44352 15.1558 4.46385C14.3786 3.56932 12.811 3.70395 12.1336 4.67227C11.4476 5.64922 11.9774 6.53505 11.8948 6.7044C11.0669 7.55257 10.2391 8.39925 9.41115 9.24457C8.2257 8.55847 6.5453 9.54847 6.44977 10.8902C6.39332 11.6718 6.89702 12.0626 6.74938 12.3275C6.05174 13.4044 5.35409 14.4812 4.65645 15.5581L4.50882 15.7057C3.04984 15.3974 1.94259 16.7956 2.26825 18.1894C2.41155 18.806 2.9934 19.1404 2.98471 19.3835C2.32036 21.2203 1.95127 23.1352 1.66903 25.0631C-0.545476 25.5668 -0.567187 28.4152 1.66903 28.8886C1.95562 30.8338 2.32904 32.7705 2.98471 34.6289C1.49101 36.2876 2.2726 38.5369 4.6 38.3371C5.25567 39.5225 5.97213 40.6776 6.81452 41.7458C5.72029 43.6129 7.40505 45.6059 9.4155 44.7679L11.9557 47.4296C11.1654 49.5487 13.5535 50.9642 15.2731 49.5529C16.4483 50.0306 17.6251 50.5097 18.8032 50.9902C18.9856 53.1439 21.4911 53.8735 22.6287 51.9455C22.9501 51.9759 25.0994 52.1149 25.1689 52.2755C25.2036 53.9733 27.5137 54.616 28.5167 53.2916C28.9423 52.7314 28.8337 52.2973 29.0855 52.1843C29.844 52.1033 30.601 52.0237 31.3565 51.9455C32.4855 53.8387 35.0126 53.1874 35.182 51.0467C36.4412 50.5603 37.696 50.048 38.951 49.5529C40.5098 51.0944 42.8937 49.3576 42.0904 47.3689C42.9385 46.5004 43.7852 45.6334 44.6306 44.7679C46.5932 45.6016 48.2302 43.6172 47.2315 41.8066C47.9494 40.6891 48.6674 39.5732 49.3853 38.4587L49.5329 38.3111C51.6953 38.6454 52.5029 36.1096 51.0569 34.694C51.7126 32.8139 52.1512 30.8729 52.3727 28.8929C54.5785 28.3936 54.5741 25.6276 52.3727 25.0066L52.39 24.9979ZM49.5763 19.6744C49.1884 21.2782 48.799 22.8833 48.4082 24.49L46.9449 24.3423C46.1865 22.8486 45.4295 21.3535 44.674 19.8568C44.674 19.6657 45.5728 19.2532 45.6596 17.9116H47.9305C48.0826 19.5051 49.5328 19.5529 49.5763 19.6744ZM36.6583 24.7548C35.4859 25.5277 35.4816 26.6524 35.373 26.7001H29.6327C29.5371 25.9359 29.0942 25.2454 28.4646 24.8156C29.472 22.8124 30.4794 20.8092 31.4868 18.806C32.2684 19.3314 33.5667 18.7713 33.6709 18.8364C34.6666 20.8107 35.6639 22.7849 36.6626 24.7591L36.6583 24.7548ZM34.1485 18.5368C34.1485 18.3718 34.8433 18.007 35.0734 17.0735C36.8971 17.3427 38.7208 17.6119 40.5445 17.8811C40.5445 19.1664 41.5129 19.631 41.4998 19.8568C40.6516 21.4229 39.8049 22.9876 38.9597 24.5507C38.0261 24.1513 37.2488 24.5247 37.1663 24.49C36.172 22.5012 35.1602 20.5212 34.1442 18.5411L34.1485 18.5368ZM33.5797 14.1425C32.9066 13.8169 32.1163 13.8169 31.426 14.0818C30.5488 12.5533 29.6977 11.0031 28.7642 9.50505C28.7512 9.3444 29.4676 8.68875 29.6891 7.92022C31.5128 8.1489 33.3365 8.37757 35.1602 8.60625C35.182 10.0087 36.0634 10.4908 36.0591 10.6384C35.2312 11.805 34.4033 12.9716 33.5753 14.1382L33.5797 14.1425ZM27.9002 24.5464C27.0056 24.1339 26.2327 24.6115 26.0765 24.516C25.1009 22.5418 24.1239 20.5675 23.1455 18.5932C23.1455 18.3935 23.9792 17.9723 24.1919 16.7087H29.8715C29.9714 16.7521 29.8932 17.8551 30.9788 18.5325C29.9511 20.5357 28.9249 22.5388 27.9002 24.542V24.5464ZM22.5766 18.806C22.6056 18.835 22.636 18.8653 22.6678 18.8972C23.626 20.8309 24.5827 22.7647 25.5379 24.6983C25.5466 24.9415 24.5697 25.5538 24.37 26.7001H18.6295C18.5254 26.648 18.6035 25.5798 17.4051 24.7548C18.4328 22.7719 19.4589 20.7889 20.4837 18.806C21.1567 19.0535 21.9079 19.1404 22.5766 18.806ZM17.9999 10.582C18.0086 10.4734 18.8728 9.88717 18.838 8.66707C19.7238 8.50635 23.6101 7.90282 24.0704 7.92022C24.7781 7.94625 24.2701 8.64097 25.3556 9.4443C25.3354 9.4848 25.315 9.52537 25.2948 9.56587C24.409 11.0509 23.5218 12.5359 22.6331 14.0209C22.4942 14.06 21.4954 13.5694 20.5402 14.1425C19.692 12.9556 18.8453 11.7703 17.9999 10.5862V10.582ZM16.9231 24.4595C16.7929 24.5464 16.0546 24.1599 15.0994 24.5507C14.2512 22.947 13.4045 21.3418 12.5592 19.7353C13.2497 19.1578 13.3842 18.6888 13.6057 17.8507C14.6131 17.8247 18.4732 17.0561 18.7468 17.0735C19.2939 17.1039 18.9509 17.7031 19.9713 18.5368C18.9553 20.5111 17.9392 22.4853 16.9231 24.4595ZM14.5913 24.8156C13.6708 25.519 13.5275 26.6524 13.4233 26.7001H9.11588C8.86837 25.1326 7.6482 24.7809 7.65255 24.516C8.3907 23.0802 9.12893 21.6444 9.86707 20.2085C10.0494 20.0696 11.4867 20.5299 11.9296 20.0609C12.0816 20.0262 12.1641 20.1999 12.2596 20.3301C12.5245 20.6949 13.9921 23.8994 14.5913 24.8156ZM9.12022 27.2385H13.4841C13.6013 27.9854 13.94 28.7018 14.5913 29.123C13.7431 30.7267 12.8965 32.3319 12.0511 33.9385C11.3911 33.6346 10.6096 33.5911 9.95827 33.9385C9.92933 33.9096 9.89888 33.8791 9.86707 33.8473C9.12893 32.371 8.3907 30.8961 7.65255 29.4226C7.66125 29.2533 8.88142 28.767 9.11588 27.2385H9.12022ZM15.0994 29.453C15.1993 29.4226 16.1328 29.77 16.832 29.453C17.9608 31.3766 18.8597 33.4348 19.9105 35.4018C19.9192 35.5972 19.2505 35.9402 18.9856 36.8651C17.1909 36.6249 15.3961 36.386 13.6013 36.1486C13.4233 36.0401 13.5622 35.0501 12.5548 34.2642C13.403 32.6605 14.2498 31.0553 15.095 29.4487L15.0994 29.453ZM17.4615 29.3011C17.4485 28.9884 18.4516 28.5846 18.6295 27.2385H24.4307C24.4307 28.0462 24.9604 28.6671 25.5379 29.1838C24.5509 31.187 23.5637 33.1902 22.5766 35.1934C22.1293 34.6376 20.5575 35.3063 20.336 35.0458C20.1276 34.7983 18.0217 30.061 17.4659 29.3054L17.4615 29.3011ZM20.4837 39.8569C21.1437 40.1652 21.9036 40.1869 22.5766 39.9177C23.5623 41.3854 24.3395 42.9963 25.2992 44.4943C25.2992 44.6203 24.5436 45.2281 24.4307 46.0184C22.8718 45.8014 21.2522 45.7536 19.7064 45.48C18.0304 45.1804 19.5979 45.1587 17.9999 43.3567C18.8279 42.1901 19.6558 41.0235 20.4837 39.8569ZM26.1025 29.453C26.6018 29.6007 27.3747 29.6701 27.835 29.453C27.9045 29.482 27.974 29.5124 28.0434 29.5442C29.0189 31.5184 29.9959 33.4927 30.9744 35.467C29.98 36.1877 29.9627 37.13 29.8671 37.1734H24.1267C24.0269 36.483 23.6708 35.8534 23.0803 35.467C24.0877 33.4638 25.0951 31.4605 26.1025 29.4574V29.453ZM31.4563 35.163L28.4646 29.1838C29.0855 28.615 29.5241 28.107 29.6327 27.2385H35.4338C35.551 28.654 36.6496 29.123 36.6583 29.2402C35.6306 31.2232 34.6045 33.2061 33.5797 35.189C32.4594 34.668 31.5649 35.2238 31.4563 35.1586V35.163ZM36.0634 43.3567C36.0677 43.4913 35.1907 44.0688 35.1646 45.2716C35.0126 45.5061 30.2753 45.9099 29.6327 46.0184C29.4373 45.0328 28.7555 44.6637 28.7642 44.4335C29.7021 42.9485 30.4967 41.3636 31.4868 39.9177C32.0556 40.1912 32.9674 40.1739 33.5189 39.8569C34.3671 41.0235 35.2138 42.1901 36.0591 43.3567H36.0634ZM37.2271 29.453C37.7785 29.6441 38.3909 29.6094 38.9597 29.453C39.8411 31.0162 40.6531 32.6662 41.4998 34.2685C41.4781 34.3727 40.4968 34.9459 40.5445 36.0619C40.4953 36.0907 40.4461 36.1212 40.3969 36.153C38.6224 36.4135 36.8479 36.6727 35.0734 36.9303C34.8259 35.8404 34.1399 35.6363 34.1485 35.4061L37.2271 29.4574V29.453ZM39.472 29.1838C39.472 29.0318 40.4186 28.4326 40.5185 27.2385H44.9431C45.195 28.945 46.3674 29.2316 46.4065 29.3618C45.6596 30.8671 44.9128 32.3724 44.1659 33.8777C42.885 33.3958 42.1164 33.9733 42.0122 33.9385C41.1395 32.371 40.3578 30.747 39.472 29.1838ZM44.8824 26.7001H40.5749C40.4707 26.6566 40.4577 25.5754 39.4677 24.8156C40.3361 23.2321 41.2031 21.6472 42.0686 20.0609C42.7113 20.3649 43.4669 20.404 44.1008 20.0609C44.1298 20.0899 44.1601 20.1202 44.1919 20.1521C44.9302 21.6082 45.6683 23.0628 46.4065 24.516C46.3978 24.7027 45.2037 25.1977 44.8824 26.7001ZM46.7973 12.6445C46.8971 12.6488 47.783 13.9775 47.9045 14.1685C49.5979 16.8217 48.4169 15.1672 47.8741 17.3688H45.6596C45.525 17.3123 45.5684 15.8316 43.9531 15.1846C44.2021 14.3973 44.4511 13.6099 44.7 12.8225C45.3774 13.1872 46.1807 13.1395 46.7929 12.6445H46.7973ZM40.1884 7.83337C40.2493 7.7595 41.096 7.97662 41.7733 7.14727C42.1077 7.38607 44.1616 9.45735 44.1356 9.63097C43.9474 9.92047 43.7578 10.21 43.5667 10.4995C42.4406 10.1897 41.3146 9.8814 40.1884 9.57457C40.132 9.47902 40.4924 8.68005 40.1884 7.842V7.83337ZM39.8585 10.0739C41.1032 10.4039 42.3494 10.7325 43.5971 11.0596C43.4756 11.9236 44.1876 12.3014 44.1963 12.5533C43.9069 13.4014 43.6174 14.2482 43.3279 15.0934C42.9082 15.134 42.4898 15.1745 42.073 15.215C41.0873 13.7734 40.1711 12.2623 39.1724 10.8208C39.4011 10.5718 39.6298 10.3228 39.8585 10.0739ZM41.5649 15.4886C41.5693 15.6709 40.7139 16.0661 40.5185 17.3123C38.6948 17.0431 36.8711 16.7739 35.0474 16.5046C35.0604 15.6623 34.739 14.9371 34.0312 14.4725C34.8592 13.3059 35.6871 12.1393 36.515 10.9727C36.6236 10.9467 37.466 11.5155 38.6079 11.0335C39.5951 12.5185 40.5822 14.0035 41.5693 15.4886H41.5649ZM35.1342 3.55627C35.2948 3.49117 38.2302 4.70265 38.3647 4.81117C38.4256 4.8633 38.5211 4.94145 38.5124 5.0196C38.0044 6.93885 38.2953 5.532 36.4499 6.3657C36.2761 6.06172 34.8736 4.31617 34.8649 4.18155C34.8649 4.14682 35.1038 3.56497 35.1342 3.55192V3.55627ZM31.9037 4.51155C32.6461 5.0196 33.6709 5.13682 34.4134 4.57237C34.9605 5.22802 35.4077 5.96617 35.9375 6.63487C35.9592 6.852 35.3296 7.20375 35.1907 8.0418C33.3466 7.7928 31.5027 7.54387 29.6587 7.29495C29.6457 6.90412 29.5632 6.50032 29.3591 6.15727C30.2073 5.61015 31.054 5.0616 31.8993 4.51155H31.9037ZM27.3313 4.06432C27.4051 3.8733 28.7121 3.7908 28.977 2.30137C29.7354 2.39985 30.4924 2.49967 31.2479 2.601C31.2957 2.65747 31.0308 3.38265 31.5172 4.00785C30.7095 4.5753 29.9019 5.1441 29.0942 5.7144C28.1867 4.75042 27.01 4.91107 27.3313 4.06867V4.06432ZM28.139 9.7743C28.2952 9.73957 28.3387 9.88282 28.4689 10.0435C28.7295 10.3692 30.2839 13.4695 30.9223 14.2902C30.9223 14.4465 29.9757 15.1021 29.9062 16.1443C28.0015 16.1732 26.0981 16.2036 24.1963 16.2355C24.0182 14.9632 23.1455 14.4508 23.1498 14.2902C23.9863 12.8543 24.823 11.4185 25.6596 9.98272C25.9331 9.66577 27.1142 10.3865 28.1433 9.7743H28.139ZM22.8155 2.601C23.2583 2.57497 24.5566 2.2971 24.7911 2.30137C25.5163 2.32312 24.891 2.81377 25.69 3.49552C26.2935 4.0122 27.0621 3.64312 26.6453 4.75042C26.0113 4.81552 25.4512 5.1759 25.03 5.64922C24.1818 5.1021 23.3351 4.55355 22.4898 4.00357C22.8936 3.63877 22.8936 3.09172 22.8198 2.59665L22.8155 2.601ZM19.7064 4.57237C20.3708 5.08477 21.3869 5.04997 22.0382 4.51155C22.924 5.05867 23.8112 5.60722 24.7 6.15727C24.6015 6.53647 24.5017 6.91567 24.4003 7.29495C22.5361 7.54387 20.6719 7.7928 18.8076 8.0418C18.7511 7.49902 18.4385 7.06042 18.0607 6.6957C18.2779 6.44385 19.5718 4.58107 19.7064 4.57237ZM15.6378 4.872C16.0764 4.7808 18.6947 3.53025 18.8684 3.55627C18.9553 3.56932 19.2114 4.15117 19.1984 4.24237C19.181 4.377 17.7481 6.08347 17.5527 6.3657C17.0012 5.87505 15.9071 6.16162 15.8462 6.09645C15.7478 5.71725 15.6479 5.33805 15.5466 4.95885L15.6378 4.86765V4.872ZM15.4598 11.0899C16.1328 11.2636 16.9014 11.3288 17.4919 10.912L19.9756 14.3509C20.0017 14.6115 18.9683 15.1152 19.0204 16.4439C17.1967 16.7536 15.373 17.0619 13.5492 17.3688C13.3451 16.5046 13.1888 16.1356 12.5028 15.545C13.445 14.047 14.409 12.5272 15.4641 11.0899H15.4598ZM12.2292 7.14292C12.9587 7.9506 13.8619 7.73782 13.8749 7.82902C13.7056 8.36745 13.7056 8.95365 13.8749 9.50505C12.7286 9.85537 11.5823 10.2042 10.4359 10.5515C10.2651 10.2013 10.0957 9.85245 9.92782 9.50505C10.695 8.7177 11.4621 7.93035 12.2292 7.14292ZM10.4662 11.1204C11.6329 10.7701 12.7995 10.4212 13.9661 10.0739C14.3352 10.0522 14.5784 10.6297 14.891 10.8815C13.9531 12.3174 13.0166 13.7532 12.0816 15.189L10.7355 15.0978C10.6313 14.7504 9.85402 12.6314 9.86707 12.4969C9.87578 12.4186 10.4923 11.9454 10.4662 11.1204ZM7.2661 12.6445C7.9131 13.1351 8.63385 13.1698 9.35903 12.8225L10.1059 15.1238C10.0799 15.3583 8.70772 15.5624 8.3994 17.3644H6.1849C6.09805 17.3254 6.07634 16.2745 5.13844 15.8403C5.84476 14.7751 6.55254 13.7083 7.26176 12.6401L7.2661 12.6445ZM6.12845 17.9072H8.3994C8.4906 17.9723 8.3169 19.0448 9.44588 19.7917L7.11413 24.3379C6.62491 24.3871 6.13714 24.4363 5.65081 24.4856C5.26291 22.8819 4.87356 21.2767 4.48276 19.6701C5.34251 19.4704 6.05463 18.8234 6.12845 17.9072ZM3.94867 34.2642C3.8792 34.3858 3.68815 34.4683 3.55788 34.4118C3.29301 34.2989 2.2726 29.4704 2.30299 28.8495C4.58263 28.3631 4.49145 25.5451 2.2726 25.0501C2.32036 24.4422 3.26261 19.783 3.49709 19.6397C3.62735 19.5616 3.87052 19.6441 3.94433 19.7873C4.05723 20.0088 4.765 23.9211 5.08198 24.6332C5.0733 25.0284 4.15276 25.189 4.00513 26.4874C3.88354 27.5772 4.12237 28.5759 5.08198 29.1795C4.85185 29.8482 4.07894 34.0384 3.94433 34.2642H3.94867ZM4.54355 34.3858C4.91119 32.7618 5.28028 31.1378 5.65081 29.5138C6.14003 29.5428 6.6278 29.5732 7.11413 29.605C7.87253 31.119 8.62957 32.6344 9.38505 34.1512C9.38505 34.3336 8.47755 34.8026 8.3994 36.0358H6.12845C6.0199 35.9836 6.03292 34.6115 4.54355 34.3901V34.3858ZM9.35903 41.1118C8.5557 40.8513 7.96523 40.8165 7.2661 41.3506C6.49754 40.3649 5.85055 39.2794 5.20357 38.2112C5.1862 37.9724 5.99384 37.7206 6.18924 36.5655H8.40375C8.53837 36.6263 8.32125 38.0245 10.1102 38.8061L9.36337 41.1074L9.35903 41.1118ZM13.8749 46.0489C13.8228 46.127 12.9544 45.9664 12.2292 46.8565C11.4621 46.0489 10.695 45.2412 9.92782 44.4335C10.0987 44.1238 10.268 43.8155 10.4359 43.5087C11.5909 43.8068 12.7474 44.1064 13.9053 44.4075C14.0269 44.5421 13.5666 45.4279 13.8749 46.0531V46.0489ZM14.1441 43.9255L10.4662 42.8791C10.5531 42.2494 10.1449 41.876 9.86707 41.3854C10.0711 41.0683 10.5575 38.9711 10.7355 38.9016C11.1263 38.9797 11.7559 38.78 11.8123 38.78C12.0425 38.7887 11.9904 38.7887 12.1424 38.9277C12.3291 39.097 14.3916 42.5925 14.8953 43.1744L14.1484 43.9212L14.1441 43.9255ZM12.4985 38.5108C12.4941 38.3328 13.4016 37.8638 13.5449 36.6871C15.3686 36.9361 17.1923 37.185 19.016 37.434C18.9335 38.3328 19.3807 39.0058 20.0321 39.5877C19.2042 40.734 18.3763 41.8804 17.5484 43.0267C17.4138 43.0614 16.5714 42.4839 15.4555 42.9659C14.4683 41.4809 13.4812 39.9958 12.4941 38.5108H12.4985ZM18.8684 50.4431C18.6991 50.5082 15.9505 49.1709 15.551 49.0363C15.9939 47.0519 15.7985 48.4327 17.5527 47.6294C17.7742 47.8726 19.1854 49.6181 19.1984 49.7527C19.1984 49.7918 18.9032 50.4257 18.8684 50.4388V50.4431ZM22.2162 49.4878C22.0816 49.4965 21.2045 48.4935 19.6457 49.3663C19.1188 48.6773 18.5905 47.9898 18.0607 47.3037C18.052 47.2082 18.6686 46.7783 18.8684 45.8968C20.7037 46.1169 22.5376 46.3369 24.37 46.5568L24.7 47.7814C23.872 48.3488 23.0441 48.9175 22.2162 49.4878ZM26.7321 49.9959C26.6756 50.1044 25.4381 50.0957 25.0864 51.6415C21.8168 51.2899 23.3539 51.7284 22.5462 49.9351C23.3539 49.3879 24.1615 48.8394 24.9691 48.2894C25.7854 49.1578 27.175 49.1144 26.7321 49.9959ZM25.8637 44.2251C25.8144 44.1961 25.7652 44.1658 25.716 44.134C24.8591 42.6576 24.0023 41.1827 23.1455 39.7093C23.128 39.5139 23.9879 38.9016 24.1919 37.7075C26.117 37.7365 28.0406 37.7668 29.9627 37.7987C29.9366 38.5543 30.436 39.1752 30.9788 39.6528L28.2562 44.1687C28.139 44.2034 26.9405 43.5391 25.8637 44.2295V44.2251ZM31.1264 51.3984C30.3882 51.4795 29.65 51.559 28.9118 51.6372C28.7686 50.1869 27.3183 50.0523 27.2662 49.9307C26.9101 49.0797 28.0955 49.262 29.0291 48.3458C29.8773 48.8929 30.724 49.4415 31.5693 49.9915C31.0482 50.4301 31.3174 51.3115 31.122 51.3984H31.1264ZM34.4177 49.3663C32.8719 48.4848 32.0295 49.5095 31.8472 49.4878C31.0395 48.9407 30.2319 48.3922 29.4242 47.8422L29.7542 46.5568C31.4882 46.3369 33.2221 46.1169 34.9562 45.8968C35.3079 45.784 35.2862 46.6871 36.0026 47.3037C35.4757 47.9927 34.9474 48.6802 34.4177 49.3663ZM35.195 50.4431C35.1473 50.4344 34.8606 49.8004 34.8649 49.7571C34.878 49.6268 36.2849 47.9377 36.4499 47.6338C37.0013 47.9073 37.5875 48.0506 38.1824 47.8117C38.2721 48.2199 38.3619 48.6281 38.4516 49.0363C37.3661 49.5052 36.2791 49.9741 35.1907 50.4431H35.195ZM38.6036 42.9659C37.9826 42.688 37.1446 42.688 36.5714 43.0875C35.7233 41.9209 34.8766 40.7542 34.0312 39.5877C34.0226 39.4487 35.0474 38.9146 35.0474 37.4947C36.033 37.295 39.472 36.7001 40.1017 36.6871C40.2015 36.6871 40.5011 36.661 40.5489 36.7175C40.6357 37.9897 41.5519 38.3502 41.5649 38.45C40.5836 39.9524 39.611 41.4722 38.6036 42.9659ZM41.8342 46.8565C41.4086 46.3311 40.792 46.2268 40.1884 46.0489C40.3839 45.5712 40.3274 45.0197 40.1277 44.5551C40.4881 44.351 43.215 43.513 43.3887 43.5087C43.4842 43.5087 43.6015 43.4913 43.6579 43.5391C43.8171 43.8372 43.9763 44.1368 44.1356 44.4379C43.3684 45.2455 42.6013 46.0532 41.8342 46.8608V46.8565ZM43.5059 42.9094C42.3103 43.2684 41.1148 43.6273 39.9193 43.9863L39.1724 43.1787C40.1393 41.7139 41.1062 40.2491 42.073 38.7844L43.4191 38.932C43.6796 39.8092 43.9387 40.6862 44.1963 41.5633C43.5667 42.0019 43.6579 42.7748 43.5103 42.9094H43.5059ZM46.8581 41.3506C46.7495 41.3767 45.994 40.5386 44.7043 41.1726C44.6132 40.8035 43.9357 38.9277 44.0183 38.7496C45.638 38.0722 45.5337 36.6307 45.664 36.5655H47.8785C48.0522 37.3341 48.2215 37.7292 48.925 38.1504C48.236 39.2157 47.5485 40.2824 46.8624 41.3506H46.8581ZM47.8741 36.0314H45.6596C45.5597 34.7635 44.6783 34.3336 44.674 34.147C45.4324 32.6329 46.1894 31.1176 46.9449 29.6007C47.4139 29.5515 47.8829 29.5022 48.3518 29.453C48.401 29.482 48.4502 29.5124 48.4994 29.5442C48.8584 31.1392 49.2173 32.7343 49.5763 34.3293C49.5328 34.4509 48.2042 34.4509 47.8698 36.0358L47.8741 36.0314ZM50.5055 34.4161C50.3666 34.477 50.1798 34.338 50.1147 34.2077C50.0062 33.9819 49.3114 30.0653 48.977 29.3054C48.9944 29.0101 50.0582 28.6498 50.0235 27.2428C50.3101 28.1808 50.8051 28.6845 51.7864 28.8886C51.7821 29.5008 50.7617 34.3033 50.5012 34.4205L50.5055 34.4161ZM50.0278 26.7609C50.0278 25.3236 48.9901 24.9154 48.9814 24.6376C49.3028 24.0904 50.0322 19.6962 50.2667 19.5832C50.3535 19.5398 50.5185 19.5832 50.5966 19.6744C50.779 19.8829 51.8125 24.3944 51.7908 25.0588C50.8355 25.2715 50.2537 25.8316 50.0278 26.7652V26.7609Z" fill="#FCFCFD"/>
</g>
<g clip-path="url(#clip1_41_330)">
<g clip-path="url(#clip2_41_330)">
<path d="M70.324 27V7.4H79.9C82.364 7.4 84.212 7.86667 85.444 8.8C86.6947 9.73333 87.32 10.9653 87.32 12.496C87.32 13.5227 87.068 14.4187 86.564 15.184C86.06 15.9307 85.3693 16.5093 84.492 16.92C83.6147 17.3307 82.6067 17.536 81.468 17.536L82 16.388C83.232 16.388 84.324 16.5933 85.276 17.004C86.228 17.396 86.9653 17.984 87.488 18.768C88.0293 19.552 88.3 20.5133 88.3 21.652C88.3 23.332 87.6373 24.648 86.312 25.6C84.9867 26.5333 83.036 27 80.46 27H70.324ZM74.832 23.584H80.124C81.3 23.584 82.1867 23.3973 82.784 23.024C83.4 22.632 83.708 22.016 83.708 21.176C83.708 20.3547 83.4 19.748 82.784 19.356C82.1867 18.9453 81.3 18.74 80.124 18.74H74.496V15.436H79.34C80.4413 15.436 81.2813 15.2493 81.86 14.876C82.4573 14.484 82.756 13.896 82.756 13.112C82.756 12.3467 82.4573 11.7773 81.86 11.404C81.2813 11.012 80.4413 10.816 79.34 10.816H74.832V23.584ZM100.022 27.224C98.3048 27.224 96.7928 26.888 95.4862 26.216C94.1982 25.544 93.1995 24.6293 92.4902 23.472C91.7808 22.296 91.4262 20.9613 91.4262 19.468C91.4262 17.956 91.7715 16.6213 92.4622 15.464C93.1715 14.288 94.1328 13.3733 95.3462 12.72C96.5595 12.048 97.9315 11.712 99.4622 11.712C100.937 11.712 102.262 12.0293 103.438 12.664C104.633 13.28 105.575 14.176 106.266 15.352C106.957 16.5093 107.302 17.9 107.302 19.524C107.302 19.692 107.293 19.888 107.274 20.112C107.255 20.3173 107.237 20.5133 107.218 20.7H94.9822V18.152H104.922L103.242 18.908C103.242 18.124 103.083 17.4427 102.766 16.864C102.449 16.2853 102.01 15.8373 101.45 15.52C100.89 15.184 100.237 15.016 99.4902 15.016C98.7435 15.016 98.0808 15.184 97.5022 15.52C96.9422 15.8373 96.5035 16.2947 96.1862 16.892C95.8688 17.4707 95.7102 18.1613 95.7102 18.964V19.636C95.7102 20.4573 95.8875 21.1853 96.2422 21.82C96.6155 22.436 97.1288 22.912 97.7822 23.248C98.4542 23.5653 99.2382 23.724 100.134 23.724C100.937 23.724 101.637 23.6027 102.234 23.36C102.85 23.1173 103.41 22.7533 103.914 22.268L106.238 24.788C105.547 25.572 104.679 26.1787 103.634 26.608C102.589 27.0187 101.385 27.224 100.022 27.224ZM116.398 27.224C115.11 27.224 113.869 27.0747 112.674 26.776C111.498 26.4587 110.565 26.0667 109.874 25.6L111.33 22.464C112.021 22.8933 112.833 23.248 113.766 23.528C114.718 23.7893 115.652 23.92 116.566 23.92C117.574 23.92 118.284 23.7987 118.694 23.556C119.124 23.3133 119.338 22.9773 119.338 22.548C119.338 22.1933 119.17 21.932 118.834 21.764C118.517 21.5773 118.088 21.4373 117.546 21.344C117.005 21.2507 116.408 21.1573 115.754 21.064C115.12 20.9707 114.476 20.8493 113.822 20.7C113.169 20.532 112.572 20.2893 112.03 19.972C111.489 19.6547 111.05 19.2253 110.714 18.684C110.397 18.1427 110.238 17.4427 110.238 16.584C110.238 15.632 110.509 14.792 111.05 14.064C111.61 13.336 112.413 12.7667 113.458 12.356C114.504 11.9267 115.754 11.712 117.21 11.712C118.237 11.712 119.282 11.824 120.346 12.048C121.41 12.272 122.297 12.5987 123.006 13.028L121.55 16.136C120.822 15.7067 120.085 15.4173 119.338 15.268C118.61 15.1 117.901 15.016 117.21 15.016C116.24 15.016 115.53 15.1467 115.082 15.408C114.634 15.6693 114.41 16.0053 114.41 16.416C114.41 16.7893 114.569 17.0693 114.886 17.256C115.222 17.4427 115.661 17.592 116.202 17.704C116.744 17.816 117.332 17.9187 117.966 18.012C118.62 18.0867 119.273 18.208 119.926 18.376C120.58 18.544 121.168 18.7867 121.69 19.104C122.232 19.4027 122.67 19.8227 123.006 20.364C123.342 20.8867 123.51 21.5773 123.51 22.436C123.51 23.3693 123.23 24.2 122.67 24.928C122.11 25.6373 121.298 26.1973 120.234 26.608C119.189 27.0187 117.91 27.224 116.398 27.224ZM133.485 27.224C131.712 27.224 130.331 26.776 129.341 25.88C128.352 24.9653 127.857 23.612 127.857 21.82V8.604H132.225V21.764C132.225 22.3987 132.393 22.8933 132.729 23.248C133.065 23.584 133.523 23.752 134.101 23.752C134.792 23.752 135.38 23.5653 135.865 23.192L137.041 26.272C136.593 26.5893 136.052 26.832 135.417 27C134.801 27.1493 134.157 27.224 133.485 27.224ZM125.533 15.632V12.272H135.977V15.632H125.533ZM140.613 27V11.936H144.981V27H140.613ZM142.797 9.836C141.995 9.836 141.341 9.60267 140.837 9.136C140.333 8.66933 140.081 8.09067 140.081 7.4C140.081 6.70933 140.333 6.13067 140.837 5.664C141.341 5.19733 141.995 4.964 142.797 4.964C143.6 4.964 144.253 5.188 144.757 5.636C145.261 6.06533 145.513 6.62533 145.513 7.316C145.513 8.044 145.261 8.65067 144.757 9.136C144.272 9.60267 143.619 9.836 142.797 9.836ZM159.311 11.712C160.506 11.712 161.57 11.9547 162.503 12.44C163.455 12.9067 164.202 13.6347 164.743 14.624C165.284 15.5947 165.555 16.8453 165.555 18.376V27H161.187V19.048C161.187 17.8347 160.916 16.9387 160.375 16.36C159.852 15.7813 159.106 15.492 158.135 15.492C157.444 15.492 156.819 15.6413 156.259 15.94C155.718 16.22 155.288 16.6587 154.971 17.256C154.672 17.8533 154.523 18.6187 154.523 19.552V27H150.155V11.936H154.327V16.108L153.543 14.848C154.084 13.84 154.859 13.0653 155.867 12.524C156.875 11.9827 158.023 11.712 159.311 11.712ZM171.166 27V11.6C171.166 9.90133 171.67 8.548 172.678 7.54C173.686 6.51333 175.124 6 176.99 6C177.625 6 178.232 6.06533 178.81 6.196C179.408 6.32667 179.912 6.532 180.322 6.812L179.174 9.976C178.932 9.808 178.661 9.67733 178.362 9.584C178.064 9.49067 177.746 9.444 177.41 9.444C176.776 9.444 176.281 9.63067 175.926 10.004C175.59 10.3587 175.422 10.9 175.422 11.628V13.028L175.534 14.904V27H171.166ZM168.842 15.632V12.272H179.286V15.632H168.842ZM189.559 27.224C187.954 27.224 186.526 26.888 185.275 26.216C184.043 25.544 183.063 24.6293 182.335 23.472C181.626 22.296 181.271 20.9613 181.271 19.468C181.271 17.956 181.626 16.6213 182.335 15.464C183.063 14.288 184.043 13.3733 185.275 12.72C186.526 12.048 187.954 11.712 189.559 11.712C191.146 11.712 192.564 12.048 193.815 12.72C195.066 13.3733 196.046 14.2787 196.755 15.436C197.464 16.5933 197.819 17.9373 197.819 19.468C197.819 20.9613 197.464 22.296 196.755 23.472C196.046 24.6293 195.066 25.544 193.815 26.216C192.564 26.888 191.146 27.224 189.559 27.224ZM189.559 23.64C190.287 23.64 190.94 23.472 191.519 23.136C192.098 22.8 192.555 22.324 192.891 21.708C193.227 21.0733 193.395 20.3267 193.395 19.468C193.395 18.5907 193.227 17.844 192.891 17.228C192.555 16.612 192.098 16.136 191.519 15.8C190.94 15.464 190.287 15.296 189.559 15.296C188.831 15.296 188.178 15.464 187.599 15.8C187.02 16.136 186.554 16.612 186.199 17.228C185.863 17.844 185.695 18.5907 185.695 19.468C185.695 20.3267 185.863 21.0733 186.199 21.708C186.554 22.324 187.02 22.8 187.599 23.136C188.178 23.472 188.831 23.64 189.559 23.64ZM201.859 27V11.936H206.031V16.192L205.443 14.96C205.891 13.896 206.609 13.0933 207.599 12.552C208.588 11.992 209.792 11.712 211.211 11.712V15.744C211.024 15.7253 210.856 15.716 210.707 15.716C210.557 15.6973 210.399 15.688 210.231 15.688C209.036 15.688 208.065 16.0333 207.319 16.724C206.591 17.396 206.227 18.4507 206.227 19.888V27H201.859ZM234.247 11.712C235.442 11.712 236.497 11.9547 237.411 12.44C238.345 12.9067 239.073 13.6347 239.595 14.624C240.137 15.5947 240.407 16.8453 240.407 18.376V27H236.039V19.048C236.039 17.8347 235.787 16.9387 235.283 16.36C234.779 15.7813 234.07 15.492 233.155 15.492C232.521 15.492 231.951 15.6413 231.447 15.94C230.943 16.22 230.551 16.6493 230.271 17.228C229.991 17.8067 229.851 18.544 229.851 19.44V27H225.483V19.048C225.483 17.8347 225.231 16.9387 224.727 16.36C224.242 15.7813 223.542 15.492 222.627 15.492C221.993 15.492 221.423 15.6413 220.919 15.94C220.415 16.22 220.023 16.6493 219.743 17.228C219.463 17.8067 219.323 18.544 219.323 19.44V27H214.955V11.936H219.127V16.052L218.343 14.848C218.866 13.8213 219.603 13.0467 220.555 12.524C221.526 11.9827 222.627 11.712 223.859 11.712C225.241 11.712 226.445 12.0667 227.471 12.776C228.517 13.4667 229.207 14.5307 229.543 15.968L228.003 15.548C228.507 14.372 229.31 13.4387 230.411 12.748C231.531 12.0573 232.81 11.712 234.247 11.712Z" fill="#FCFCFD"/>
</g>
<g clip-path="url(#clip3_41_330)">
<path d="M71.904 50V40.192H68.064V38.8H77.328V40.192H73.488V50H71.904ZM80.1106 50V38.8H84.4786C85.46 38.8 86.2973 38.9547 86.9906 39.264C87.684 39.5733 88.2173 40.0213 88.5906 40.608C88.964 41.1947 89.1506 41.8933 89.1506 42.704C89.1506 43.5147 88.964 44.2133 88.5906 44.8C88.2173 45.376 87.684 45.8187 86.9906 46.128C86.2973 46.4373 85.46 46.592 84.4786 46.592H80.9906L81.7106 45.856V50H80.1106ZM87.5986 50L84.7506 45.936H86.4626L89.3426 50H87.5986ZM81.7106 46.016L80.9906 45.232H84.4306C85.4546 45.232 86.228 45.0133 86.7506 44.576C87.284 44.128 87.5506 43.504 87.5506 42.704C87.5506 41.904 87.284 41.2853 86.7506 40.848C86.228 40.4107 85.4546 40.192 84.4306 40.192H80.9906L81.7106 39.392V46.016ZM91.0796 50L96.1516 38.8H97.7356L102.824 50H101.144L96.6156 39.696H97.2556L92.7276 50H91.0796ZM93.2396 47.2L93.6716 45.92H99.9756L100.44 47.2H93.2396ZM108.173 50L103.245 38.8H104.973L109.501 49.136H108.509L113.069 38.8H114.669L109.757 50H108.173ZM118.593 43.632H124.353V44.992H118.593V43.632ZM118.737 48.608H125.265V50H117.137V38.8H125.041V40.192H118.737V48.608ZM128.896 50V38.8H130.496V48.608H136.56V50H128.896ZM144.772 50V38.8H149.14C150.122 38.8 150.959 38.9547 151.652 39.264C152.346 39.5733 152.879 40.0213 153.252 40.608C153.626 41.1947 153.812 41.8933 153.812 42.704C153.812 43.5147 153.626 44.2133 153.252 44.8C152.879 45.376 152.346 45.824 151.652 46.144C150.959 46.4533 150.122 46.608 149.14 46.608H145.652L146.372 45.856V50H144.772ZM146.372 46.016L145.652 45.216H149.092C150.116 45.216 150.89 44.9973 151.412 44.56C151.946 44.1227 152.212 43.504 152.212 42.704C152.212 41.904 151.946 41.2853 151.412 40.848C150.89 40.4107 150.116 40.192 149.092 40.192H145.652L146.372 39.392V46.016ZM157.203 50V38.8H158.803V48.608H164.867V50H157.203ZM166.047 50L171.119 38.8H172.703L177.791 50H176.111L171.583 39.696H172.223L167.695 50H166.047ZM168.207 47.2L168.639 45.92H174.943L175.407 47.2H168.207ZM182.163 50V40.192H178.323V38.8H187.587V40.192H183.747V50H182.163ZM191.81 44.096H197.586V45.472H191.81V44.096ZM191.97 50H190.37V38.8H198.274V40.192H191.97V50ZM206.497 50.128C205.644 50.128 204.849 49.984 204.113 49.696C203.388 49.408 202.759 49.008 202.225 48.496C201.692 47.9733 201.276 47.3653 200.977 46.672C200.679 45.9787 200.529 45.2213 200.529 44.4C200.529 43.5787 200.679 42.8213 200.977 42.128C201.276 41.4347 201.692 40.832 202.225 40.32C202.759 39.7973 203.388 39.392 204.113 39.104C204.839 38.816 205.633 38.672 206.497 38.672C207.351 38.672 208.135 38.816 208.849 39.104C209.575 39.3813 210.204 39.7813 210.737 40.304C211.281 40.816 211.697 41.4187 211.985 42.112C212.284 42.8053 212.433 43.568 212.433 44.4C212.433 45.232 212.284 45.9947 211.985 46.688C211.697 47.3813 211.281 47.9893 210.737 48.512C210.204 49.024 209.575 49.424 208.849 49.712C208.135 49.9893 207.351 50.128 206.497 50.128ZM206.497 48.704C207.116 48.704 207.687 48.5973 208.209 48.384C208.743 48.1707 209.201 47.872 209.585 47.488C209.98 47.0933 210.284 46.6347 210.497 46.112C210.721 45.5893 210.833 45.0187 210.833 44.4C210.833 43.7813 210.721 43.2107 210.497 42.688C210.284 42.1653 209.98 41.712 209.585 41.328C209.201 40.9333 208.743 40.6293 208.209 40.416C207.687 40.2027 207.116 40.096 206.497 40.096C205.868 40.096 205.287 40.2027 204.753 40.416C204.231 40.6293 203.772 40.9333 203.377 41.328C202.983 41.712 202.673 42.1653 202.449 42.688C202.236 43.2107 202.129 43.7813 202.129 44.4C202.129 45.0187 202.236 45.5893 202.449 46.112C202.673 46.6347 202.983 47.0933 203.377 47.488C203.772 47.872 204.231 48.1707 204.753 48.384C205.287 48.5973 205.868 48.704 206.497 48.704ZM215.919 50V38.8H220.287C221.268 38.8 222.105 38.9547 222.799 39.264C223.492 39.5733 224.025 40.0213 224.399 40.608C224.772 41.1947 224.959 41.8933 224.959 42.704C224.959 43.5147 224.772 44.2133 224.399 44.8C224.025 45.376 223.492 45.8187 222.799 46.128C222.105 46.4373 221.268 46.592 220.287 46.592H216.799L217.519 45.856V50H215.919ZM223.407 50L220.559 45.936H222.271L225.151 50H223.407ZM217.519 46.016L216.799 45.232H220.239C221.263 45.232 222.036 45.0133 222.559 44.576C223.092 44.128 223.359 43.504 223.359 42.704C223.359 41.904 223.092 41.2853 222.559 40.848C222.036 40.4107 221.263 40.192 220.239 40.192H216.799L217.519 39.392V46.016ZM228.584 50V38.8H229.896L234.92 47.264H234.216L239.176 38.8H240.488L240.504 50H238.968L238.952 41.216H239.32L234.904 48.64H234.168L229.72 41.216H230.12V50H228.584Z" fill="#FCFCFD"/>
</g>
</g>
</g>
<defs>
<clipPath id="clip0_41_330">
<rect width="243" height="54" fill="white"/>
</clipPath>
<clipPath id="clip1_41_330">
<rect width="175" height="54" fill="white" transform="translate(68)"/>
</clipPath>
<clipPath id="clip2_41_330">
<rect width="175" height="34" fill="white" transform="translate(68)"/>
</clipPath>
<clipPath id="clip3_41_330">
<rect width="175" height="20" fill="white" transform="translate(68 34)"/>
</clipPath>
</defs>
</svg>
