<svg width="30" height="26" viewBox="0 0 30 26" fill="none" xmlns="http://www.w3.org/2000/svg">
<path d="M13.083 25.9978C12.0751 25.9978 11.161 25.5916 10.5745 24.8831C9.9868 24.1746 9.83549 23.2938 10.1581 22.4672L12.7116 16.2478H6.72677L5.19117 18.2758C4.61094 19.0417 3.63306 19.4978 2.5764 19.4978C1.73107 19.4978 0.943257 19.1425 0.46432 18.5477C-0.0171188 17.9519 -0.132164 17.1893 0.156699 16.5057L1.5685 13.0065L0.0729164 9.61242C-0.124661 8.736 0.112932 7.91808 0.678153 7.32875C1.1921 6.79358 1.90613 6.49892 2.68894 6.49892C3.74185 6.49892 4.71598 6.95175 5.29621 7.71225L6.85307 9.74892H12.7104L10.1606 3.53817C9.83424 2.70292 9.98555 1.82325 10.5733 1.11475C11.1598 0.40625 12.0739 0 13.0818 0C14.3785 0 15.5702 0.612083 16.1917 1.599L21.5776 9.75H26.0818C27.9963 9.75 29.6595 10.9146 29.9496 12.4583C30.1297 13.4128 29.8221 14.3769 29.108 15.1049C28.394 15.8329 27.3523 16.25 26.2494 16.25H21.5788L16.1867 24.4107C15.5715 25.3879 14.3798 26 13.083 26V25.9978ZM6.38914 15.1645H13.5982C13.8008 15.1645 13.9909 15.2501 14.1084 15.3942C14.226 15.5383 14.2547 15.7224 14.1859 15.8882L11.3386 22.8226C11.151 23.3068 11.241 23.8301 11.5899 24.2515C11.9388 24.6729 12.4828 24.9145 13.0818 24.9145C13.9208 24.9145 14.6924 24.518 15.095 23.8788L20.6722 15.4364C20.7835 15.2685 20.9899 15.1645 21.2149 15.1645H26.2482C26.9834 15.1645 27.6787 14.8861 28.1539 14.4008C28.6378 13.9078 28.8367 13.2795 28.7141 12.6306C28.5216 11.6047 27.3886 10.8312 26.0806 10.8312H21.2137C20.9886 10.8312 20.7823 10.7272 20.671 10.5592L15.1025 2.1255C14.6936 1.47767 13.9221 1.08117 13.083 1.08117C12.484 1.08117 11.9401 1.32275 11.5912 1.74417C11.2423 2.16558 11.151 2.68992 11.3436 3.18175L14.1872 10.1086C14.256 10.2743 14.226 10.4585 14.1097 10.6026C13.9934 10.7467 13.802 10.8323 13.5995 10.8323H6.51919C6.30911 10.8323 6.11403 10.7413 5.99774 10.5896L4.25455 8.31025C3.68308 7.56275 2.33755 7.29733 1.63978 8.02208C1.3084 8.36658 1.17085 8.853 1.27089 9.32208L2.81649 12.8061C2.86901 12.9253 2.87151 13.0574 2.82274 13.1777L1.33341 16.8718C1.18085 17.2348 1.23837 17.6172 1.48847 17.9281C1.73857 18.239 2.13372 18.4167 2.57014 18.4167C3.21039 18.4167 3.79687 18.1426 4.14576 17.6833L5.86643 15.4115C5.98273 15.2587 6.17781 15.1667 6.38914 15.1667V15.1645Z" fill="#6B7280"/>
</svg>
