<svg width="30" height="30" viewBox="0 0 30 30" fill="none" xmlns="http://www.w3.org/2000/svg">
<path d="M2.95267 16.7018V7.31631C2.95267 6.66663 2.42599 6.13995 1.77637 6.13995C1.12669 6.13995 0.600006 6.66663 0.600006 7.31631V22.6835C0.600006 23.3332 1.12669 23.8599 1.77637 23.8599C2.42605 23.8599 2.95267 23.3332 2.95267 22.6835V20.4797L27.0474 20.4231V22.6269C27.0474 23.2766 27.5741 23.8032 28.2237 23.8032C28.8733 23.8032 29.4 23.2765 29.4 22.6268V20.423V17.3459V16.6451L2.95267 16.7018Z" fill="white"/>
<path d="M29.4 15.6941H11.5175V11.2615C11.5175 9.97746 12.5584 8.93652 13.8425 8.93652H24.7062C27.2985 8.93652 29.4 11.038 29.4 13.6303V15.6941Z" fill="white"/>
<path d="M7.33143 15.1878C8.9177 15.1878 10.2036 13.9018 10.2036 12.3156C10.2036 10.7293 8.9177 9.44336 7.33143 9.44336C5.74516 9.44336 4.45923 10.7293 4.45923 12.3156C4.45923 13.9018 5.74516 15.1878 7.33143 15.1878Z" fill="white"/>
</svg>
