<svg width="30" height="30" viewBox="0 0 30 30" fill="none" xmlns="http://www.w3.org/2000/svg">
<path d="M27.1875 22.5C27.4361 22.5 27.6746 22.4013 27.8504 22.2254C28.0262 22.0496 28.125 21.8112 28.125 21.5625V19.6875C28.1245 19.5144 28.076 19.3448 27.985 19.1975C27.894 19.0503 27.764 18.9311 27.6094 18.8532L21.9844 16.0407C21.8535 15.9747 21.709 15.9404 21.5625 15.9404C21.416 15.9404 21.2715 15.9747 21.1406 16.0407L15.5156 18.8532C15.361 18.9311 15.231 19.0503 15.14 19.1975C15.049 19.3448 15.0005 19.5144 15 19.6875V21.5625C15 21.8112 15.0988 22.0496 15.2746 22.2254C15.4504 22.4013 15.6889 22.5 15.9375 22.5H16.875V26.25H15.9375C15.6889 26.25 15.4504 26.3488 15.2746 26.5246C15.0988 26.7004 15 26.9389 15 27.1875C15 27.4362 15.0988 27.6746 15.2746 27.8504C15.4504 28.0263 15.6889 28.125 15.9375 28.125H27.1875C27.4361 28.125 27.6746 28.0263 27.8504 27.8504C28.0262 27.6746 28.125 27.4362 28.125 27.1875C28.125 26.9389 28.0262 26.7004 27.8504 26.5246C27.6746 26.3488 27.4361 26.25 27.1875 26.25H26.25V22.5H27.1875ZM16.875 20.2688L21.5625 17.925L26.25 20.2688V20.625H16.875V20.2688ZM18.75 22.5H20.625V26.25H18.75V22.5ZM24.375 26.25H22.5V22.5H24.375V26.25Z" fill="white"/>
<path d="M13.2094 23.7656C12.4219 24.7031 11.7188 25.425 11.25 25.8937C9.375 24 3.75 17.8125 3.75 11.25C3.75 9.26088 4.54018 7.35322 5.9467 5.9467C7.35322 4.54018 9.26088 3.75 11.25 3.75C13.2391 3.75 15.1468 4.54018 16.5533 5.9467C17.9598 7.35322 18.75 9.26088 18.75 11.25C18.7447 12.1322 18.6505 13.0117 18.4688 13.875C18.4441 13.9981 18.444 14.1249 18.4684 14.248C18.4927 14.3712 18.5411 14.4884 18.6108 14.5928C18.6804 14.6973 18.7699 14.787 18.8743 14.8569C18.9786 14.9267 19.0956 14.9754 19.2188 15C19.3419 15.0246 19.4686 15.0248 19.5918 15.0004C19.715 14.976 19.8321 14.9276 19.9366 14.858C20.041 14.7884 20.1308 14.6988 20.2006 14.5945C20.2705 14.4902 20.3191 14.3731 20.3438 14.25C20.5394 13.2622 20.6336 12.257 20.625 11.25C20.625 8.7636 19.6373 6.37903 17.8791 4.62087C16.121 2.86272 13.7364 1.875 11.25 1.875C8.7636 1.875 6.37903 2.86272 4.62087 4.62087C2.86272 6.37903 1.875 8.7636 1.875 11.25C1.875 20.0062 10.3125 27.5719 10.6313 27.8906C10.8023 28.0409 11.0223 28.1238 11.25 28.1238C11.4777 28.1238 11.6977 28.0409 11.8687 27.8906C12.8555 26.9857 13.7795 26.0147 14.6344 24.9844C14.796 24.7954 14.8759 24.55 14.8566 24.3021C14.8372 24.0542 14.7202 23.8241 14.5312 23.6625C14.3423 23.5009 14.0969 23.421 13.849 23.4403C13.6011 23.4596 13.371 23.5767 13.2094 23.7656Z" fill="white"/>
<path d="M11.25 5.625C10.1375 5.625 9.04995 5.9549 8.12492 6.57298C7.19989 7.19107 6.47892 8.06957 6.05318 9.09741C5.62744 10.1252 5.51604 11.2562 5.73309 12.3474C5.95013 13.4385 6.48586 14.4408 7.27253 15.2275C8.0592 16.0141 9.06148 16.5499 10.1526 16.7669C11.2438 16.984 12.3748 16.8726 13.4026 16.4468C14.4304 16.0211 15.3089 15.3001 15.927 14.3751C16.5451 13.4501 16.875 12.3625 16.875 11.25C16.875 9.75816 16.2824 8.32742 15.2275 7.27252C14.1726 6.21763 12.7418 5.625 11.25 5.625ZM11.25 15C10.5083 15 9.7833 14.7801 9.16661 14.368C8.54993 13.956 8.06928 13.3703 7.78545 12.6851C7.50163 11.9998 7.42736 11.2458 7.57206 10.5184C7.71675 9.79098 8.0739 9.1228 8.59835 8.59835C9.1228 8.0739 9.79099 7.71675 10.5184 7.57205C11.2458 7.42736 11.9998 7.50162 12.6851 7.78545C13.3703 8.06928 13.956 8.54993 14.368 9.16661C14.7801 9.7833 15 10.5083 15 11.25C15 12.2446 14.6049 13.1984 13.9017 13.9017C13.1984 14.6049 12.2446 15 11.25 15Z" fill="white"/>
</svg>
