<svg width="47" height="46" viewBox="0 0 47 46" fill="none" xmlns="http://www.w3.org/2000/svg">
<path fill-rule="evenodd" clip-rule="evenodd" d="M32.4458 36.5319C24.7768 41.661 14.3986 39.608 9.26942 31.939C4.13323 24.2629 6.19335 13.8847 13.8624 8.75552C21.5314 3.61932 31.9167 5.67945 37.0458 13.3485C42.1749 21.0245 40.1148 31.4028 32.4458 36.5319ZM37.4338 13.0945C32.1707 5.22791 21.4679 3.10429 13.6084 8.36748C5.74887 13.6236 3.62525 24.3334 8.88139 32.1929C14.1375 40.0595 24.8473 42.1831 32.7068 36.9199C40.5664 31.6638 42.69 20.961 37.4338 13.0945Z" fill="white"/>
<path fill-rule="evenodd" clip-rule="evenodd" d="M28.9186 31.2546C24.1634 34.4365 17.722 33.1595 14.5401 28.4043C11.3582 23.6491 12.6423 17.2147 17.3975 14.0328C22.1527 10.8509 28.5871 12.1279 31.769 16.8831C34.9509 21.6383 33.6739 28.0727 28.9186 31.2546ZM32.164 16.615C28.841 11.6341 22.1033 10.3006 17.1294 13.6307C12.1555 16.9607 10.822 23.6985 14.145 28.6724C17.4751 33.6463 24.2058 34.9868 29.1797 31.6568C34.1607 28.3267 35.4941 21.589 32.164 16.615Z" fill="white"/>
<path fill-rule="evenodd" clip-rule="evenodd" d="M9.36827 21.984C9.73514 21.984 10.0315 22.2804 10.0315 22.6472C10.0315 23.0071 9.73514 23.3104 9.36827 23.3104C9.0014 23.3104 8.70508 23.0141 8.70508 22.6472C8.70508 22.2804 9.0014 21.984 9.36827 21.984Z" fill="white"/>
<path fill-rule="evenodd" clip-rule="evenodd" d="M36.9967 21.984C37.3636 21.984 37.6599 22.2804 37.6599 22.6472C37.6599 23.0071 37.3636 23.3104 36.9967 23.3104C36.6298 23.3104 36.3335 23.0141 36.3335 22.6472C36.3406 22.2804 36.6369 21.984 36.9967 21.984Z" fill="white"/>
<path d="M12.5292 16.9396C12.6633 16.6785 12.7338 16.4528 12.7762 16.1635L12.1341 15.8319C12.0142 15.7684 11.9648 15.7684 11.8872 15.8742L11.6967 16.1282L11.4145 15.9801L12.0071 14.8512L12.2894 14.9994L12.2259 15.204C12.1906 15.338 12.2259 15.3663 12.3387 15.4298L13.1783 15.8672C13.1571 16.1776 13.1289 16.6785 12.8538 17.2077C12.3246 18.2236 11.4709 18.3224 10.3633 17.7509C9.35439 17.2288 8.78997 16.3399 9.36144 15.2393C9.52371 14.9218 9.7142 14.6043 10.2292 14.2445L10.97 14.7242L10.7936 15.0699L10.2081 14.9006C9.97524 15.084 9.83414 15.2181 9.6507 15.5709C9.45316 15.9448 9.48138 16.1776 9.55193 16.3893C9.63659 16.6433 10.2151 17.0736 10.5749 17.2641C11.3722 17.6733 12.1412 17.6945 12.5292 16.9396Z" fill="white"/>
<path d="M15.1608 12.3255C15.8311 13.0169 15.5347 13.7859 15.0479 14.2515C14.42 14.8512 13.7851 14.816 13.1995 14.2163L11.7673 12.7276C11.6755 12.6288 11.6191 12.6077 11.5133 12.6923L11.2734 12.8546L11.0547 12.6218L12.0283 11.6834L12.247 11.9163L12.0777 12.1491C11.993 12.2549 12.0142 12.3114 12.113 12.4031L13.4817 13.8282C14.0108 14.3785 14.5047 14.1739 14.8716 13.8212C15.0268 13.673 15.1608 13.4614 15.1679 13.2567C15.1749 13.0874 15.0691 12.8617 14.7516 12.5371L13.4111 11.1472C13.3124 11.0485 13.27 11.0344 13.1571 11.112L12.9173 11.2742L12.6915 11.0414L13.651 10.1172L13.8768 10.35L13.7074 10.5828C13.6228 10.6887 13.644 10.738 13.7357 10.8368L15.1608 12.3255Z" fill="white"/>
<path d="M18.3428 11.9374L17.983 12.1068L15.4502 9.63743C15.309 9.49632 15.1891 9.51749 15.0621 9.56687L14.8857 9.63037L14.7446 9.34111L16.0569 8.71319L16.1909 8.9954L15.9511 9.14356C15.8523 9.20706 15.8241 9.24233 15.8523 9.30583C15.8664 9.33405 15.8946 9.36933 15.9299 9.4046L17.8842 11.3801L17.4609 8.66381C17.4538 8.62147 17.4397 8.57914 17.4256 8.55092C17.3903 8.48037 17.3339 8.48037 17.2281 8.5227L16.96 8.61442L16.8189 8.33221L18.0324 7.74663L18.1664 8.03589L17.9971 8.15583C17.8842 8.22638 17.8419 8.27577 17.863 8.47331L18.3428 11.9374Z" fill="white"/>
<path d="M20.0287 11.2531L19.9793 10.9356L20.2544 10.8439C20.3885 10.8015 20.4026 10.7521 20.3814 10.6181L19.9581 7.88773C19.937 7.75368 19.9087 7.69018 19.7676 7.69724L19.4784 7.7043L19.436 7.40798L22.1876 6.99172L22.3005 7.90184L21.9618 7.95828L21.8701 7.59141C21.8419 7.45736 21.7713 7.44325 21.6443 7.46442L20.3955 7.64785L20.586 8.90368L21.8419 8.71319L21.9054 9.10123L20.6495 9.29172L20.8682 10.7169L22.117 10.5264C22.244 10.5052 22.3075 10.477 22.2934 10.3359L22.2652 9.93374L22.625 9.8773L22.8014 10.8156L20.0287 11.2531Z" fill="white"/>
<path d="M24.5652 8.81902L25.0449 8.88251C25.2425 8.91073 25.4188 8.92485 25.5882 8.81902C25.7504 8.72024 25.8422 8.57208 25.8845 8.26871C25.948 7.78896 25.6376 7.5773 25.1578 7.5138L24.7556 7.45736L24.5652 8.81902ZM24.3535 10.3782C24.3323 10.5123 24.3535 10.5687 24.4876 10.604L24.8333 10.6957L24.7909 11.0202L23.3799 10.8298L23.4222 10.5123L23.7115 10.5052C23.8455 10.5052 23.8737 10.4558 23.8949 10.3218L24.2688 7.59846C24.29 7.46442 24.2759 7.41503 24.1418 7.3727L23.8667 7.28804L23.909 6.97055L25.3201 7.1681C26.0609 7.26687 26.5124 7.56319 26.4136 8.30399C26.3078 9.06595 25.6376 9.20705 25.2989 9.20705C25.4118 9.24938 25.5247 9.41165 25.6023 9.58804L26.0679 10.5899C26.1808 10.8227 26.3219 10.9144 26.456 10.9285C26.5124 10.9356 26.6182 10.9215 26.6535 10.9215L26.5829 11.2107C26.5336 11.239 26.3642 11.2954 26.1455 11.2601C25.8563 11.2248 25.701 10.9779 25.5811 10.7239L25.0237 9.48221C24.9673 9.36227 24.8897 9.24233 24.7274 9.22116L24.5299 9.19294L24.3535 10.3782Z" fill="white"/>
<path d="M28.2127 11.3589C28.1493 11.4788 28.1422 11.5282 28.248 11.6129L28.4738 11.7893L28.3186 12.0715L27.1333 11.4224L27.2885 11.1402L27.5637 11.2319C27.6907 11.2813 27.733 11.246 27.7965 11.1261L29.1158 8.70614C29.1793 8.5862 29.1934 8.5227 29.0805 8.44509L28.8548 8.28282L29.01 8.00061L29.8072 8.43804L30.0542 12.0433L31.2394 9.8773C31.31 9.75736 31.3241 9.69387 31.2112 9.6092L30.9784 9.44693L31.1336 9.16472L32.3048 9.80675L32.1566 10.089L31.8885 9.98313C31.7615 9.93374 31.7121 9.98313 31.6486 10.096L30.0542 13.0169L29.6379 12.7911L29.398 9.19295L28.2127 11.3589Z" fill="white"/>
<path d="M33.4833 14.6325C32.7919 15.2957 32.0229 14.9994 31.5572 14.5126C30.9575 13.8847 30.9928 13.2426 31.5995 12.6641L33.0882 11.2319C33.187 11.1402 33.2081 11.0908 33.1305 10.9779L32.9682 10.738L33.2011 10.5193L34.1394 11.5L33.9066 11.7187L33.6738 11.5494C33.5679 11.4647 33.5186 11.4859 33.4198 11.5776L31.9876 12.9463C31.4373 13.4755 31.6348 13.9693 31.9876 14.3362C32.1357 14.4914 32.3474 14.6255 32.552 14.6396C32.7213 14.6466 32.9471 14.5408 33.2716 14.2233L34.6686 12.8828C34.7673 12.7911 34.7885 12.7417 34.7038 12.6288L34.5416 12.389L34.7673 12.1632L35.6916 13.1227L35.4658 13.3414L35.233 13.1721C35.1271 13.0874 35.0707 13.1086 34.979 13.2003L33.4833 14.6325Z" fill="white"/>
<path d="M33.0811 16.2552L33.3633 16.1141L33.5396 16.3469C33.6173 16.4598 33.6737 16.4528 33.7936 16.3963L36.2488 15.1546C36.3688 15.0911 36.4041 15.0558 36.3617 14.9218L36.2771 14.6466L36.5593 14.4985L37.1872 15.7331L36.905 15.8813L36.7145 15.6202C36.6298 15.5074 36.5804 15.5144 36.4605 15.5779L33.8501 16.8972L34.3369 17.8567C34.3933 17.9696 34.4427 18.019 34.5697 17.9696L34.9507 17.8144L35.113 18.139L34.2734 18.5975L33.0811 16.2552Z" fill="white"/>
<path d="M10.7298 27.9951L10.9485 28.4396C11.0403 28.623 11.1179 28.7853 11.3084 28.8699C11.4918 28.9546 11.6611 28.9475 11.9504 28.8135C12.4019 28.5948 12.4019 28.2138 12.1832 27.7552L12.0068 27.3813L10.7298 27.9951ZM9.2694 28.6936C9.1424 28.75 9.10713 28.7994 9.14946 28.9334L9.2694 29.2791L8.96602 29.4202L8.33105 28.1009L8.62032 27.9598L8.7967 28.2068C8.88136 28.3196 8.93075 28.3196 9.05774 28.2632L11.6047 27.0356C11.7317 26.9791 11.7669 26.9368 11.7246 26.8028L11.647 26.5135L11.9433 26.3724L12.5712 27.6988C12.9028 28.3902 12.9169 28.9475 12.2185 29.2791C11.5059 29.6248 11.005 29.131 10.8074 28.8347C10.8357 28.9546 10.758 29.1451 10.6522 29.3144L10.0525 30.281C9.91142 30.5068 9.91848 30.6831 9.97492 30.8031C10.0031 30.8595 10.0666 30.9371 10.0949 30.9653L9.80559 31.0712C9.75621 31.0429 9.6151 30.9371 9.50928 30.7255C9.38228 30.4503 9.50222 30.1822 9.65038 29.9353L10.3982 28.75C10.4688 28.6371 10.5252 28.5031 10.4476 28.3408L10.363 28.1644L9.2694 28.6936Z" fill="white"/>
<path d="M13.7918 30.789C13.4955 30.8101 12.9522 31.1841 12.5995 31.5439C11.8939 32.2564 11.7881 33.0114 12.3807 33.604C12.6347 33.858 12.8958 33.9991 13.1921 33.9709C13.4884 33.9497 14.0317 33.5758 14.3844 33.216C15.0899 32.5034 15.1958 31.7485 14.6031 31.1558C14.3421 30.9018 14.0881 30.7678 13.7918 30.789ZM11.9433 33.7522C11.1037 32.9196 11.393 31.9883 12.2326 31.1347C12.9734 30.3868 14.0599 30.0411 15.0264 31.0077C15.859 31.8402 15.5768 32.7715 14.7301 33.6181C13.9964 34.373 12.9099 34.7117 11.9433 33.7522Z" fill="white"/>
<path d="M15.1255 36.3696L15.2454 36.0663L15.5347 36.1298C15.6758 36.165 15.697 36.1227 15.7605 35.9957L17.0163 33.3712C17.0516 33.2724 17.0304 33.2159 16.9175 33.1525L16.6635 33.0113L16.7835 32.708L17.8206 33.1242L17.6442 36.5601L19.7678 33.8932L20.8684 34.3307L20.7485 34.634L20.4451 34.5494C20.3181 34.5141 20.2617 34.5353 20.2194 34.6482L19.3657 37.4138C19.3233 37.5478 19.3163 37.5902 19.4362 37.6678L19.7255 37.8301L19.6056 38.1405L18.2862 37.6184L18.4062 37.308L18.6954 37.3856C18.8154 37.4138 18.8718 37.3785 18.9141 37.2798L19.7819 34.5423L17.5384 37.315L17.1715 37.1669L17.3267 33.5687L16.1485 36.1721C16.1132 36.2779 16.1203 36.3485 16.2402 36.412L16.5013 36.5531L16.3813 36.8564L15.1255 36.3696Z" fill="white"/>
<path d="M23.0767 34.8316L23.0203 35.0785L22.4911 36.6518L23.6976 36.6377L23.1473 35.0715L23.0767 34.8316ZM23.3236 33.6957L23.9657 34.3166L23.754 34.4647L23.112 33.9779L22.4911 34.4718L22.2724 34.3236L22.9074 33.6957H23.3236ZM22.8651 34.3589L23.3871 34.3518L24.6077 37.7313C24.6782 37.9288 24.7347 37.9641 24.8758 37.9853L25.0945 38.0206V38.3521L23.6623 38.3592V38.0417L23.9657 37.9923C24.0644 37.9712 24.1138 37.9288 24.1138 37.8512C24.1138 37.816 24.1068 37.7877 24.0856 37.7454L23.8387 37.0399L22.3571 37.054L22.1313 37.7454C22.1172 37.7877 22.1101 37.8301 22.1101 37.8583C22.1101 37.9429 22.1595 37.9853 22.2583 37.9994L22.5617 38.0488V38.3663L21.2282 38.3733L21.2212 38.0417L21.4328 37.9994C21.574 37.9712 21.6233 37.9359 21.6939 37.7383L22.8651 34.3589Z" fill="white"/>
<path d="M27.8531 37.0752C27.9096 37.2021 27.9448 37.2445 28.0789 37.2163L28.3681 37.1528L28.4881 37.4632L27.1899 37.9641L27.07 37.6607L27.324 37.5055C27.4439 37.435 27.451 37.3785 27.3945 37.2515L26.3645 34.6129C26.3151 34.4859 26.2657 34.4294 26.1316 34.4647L25.8494 34.5353L25.7295 34.2319L26.5973 33.8862L29.6028 36.0733L28.6715 33.7028C28.6221 33.5687 28.5798 33.5123 28.4457 33.5475L28.1635 33.6252L28.0436 33.3218L29.3277 32.8209L29.4476 33.1242L29.1865 33.2583C29.0666 33.3218 29.0737 33.3923 29.116 33.5264L30.3648 36.7153L29.9132 36.8917L26.9077 34.7046L27.8531 37.0752Z" fill="white"/>
<path d="M33.5257 34.5212L32.4321 35.389L32.2275 35.1279L32.4321 34.9021C32.5238 34.7963 32.5097 34.7399 32.4251 34.634L30.6683 32.4187C30.5766 32.3058 30.5272 32.2847 30.4073 32.3482L30.1392 32.4963L29.9346 32.2353L31.0281 31.3675L31.2327 31.6215L31.0352 31.8472C30.9364 31.9531 30.9505 32.0025 31.0422 32.1083L32.806 34.3307C32.8907 34.4365 32.9401 34.4647 33.06 34.3942L33.3211 34.2531L33.5257 34.5212Z" fill="white"/>
<path d="M34.9786 33.1525L34.7105 32.9549L34.8446 32.6868C34.9081 32.5598 34.8869 32.5104 34.774 32.4328L32.4952 30.7325C32.3823 30.6479 32.3188 30.6267 32.22 30.7255L32.0154 30.9442L31.7544 30.7607L33.4618 28.4607L34.2096 29.0604L33.998 29.3497L33.6664 29.1451C33.5464 29.0675 33.49 29.1098 33.4124 29.2156L32.6434 30.2528L33.6946 31.0288L34.4707 29.9847L34.7952 30.2245L34.0191 31.2687L35.2044 32.1506L35.9805 31.1064C36.0581 31.0006 36.0792 30.9301 35.9734 30.8383L35.6559 30.5632L35.8817 30.2598L36.693 30.8242L34.9786 33.1525Z" fill="white"/>
<path d="M38.062 27.8187L37.5399 29.1169L37.2365 28.9969L37.3 28.7077C37.3282 28.5666 37.2929 28.5313 37.166 28.4819L34.5344 27.4307C34.4074 27.3813 34.3509 27.3813 34.2804 27.5012L34.1252 27.7552L33.8218 27.6353L34.3368 26.3442L34.6402 26.4641L34.5767 26.7534C34.5414 26.8874 34.5837 26.9298 34.7107 26.9791L37.3353 28.0304C37.4623 28.0798 37.5187 28.0798 37.5893 27.9598L37.7445 27.7058L38.062 27.8187Z" fill="white"/>
<path fill-rule="evenodd" clip-rule="evenodd" d="M24.5161 22.9083L24.4808 22.9294L24.4949 22.9647H24.4526L24.4385 23.0141L24.3891 22.9929L24.3468 23.0282L24.3115 23L24.2691 23.0212L24.255 22.9859H24.2056L24.2127 22.9436L24.1704 22.9365L24.1845 22.9012L24.1422 22.873L24.1774 22.8448L24.1633 22.8095L24.1986 22.7883V22.7531L24.2409 22.746L24.248 22.7107L24.2974 22.7248L24.3256 22.6896L24.3609 22.7248L24.4032 22.7107L24.4173 22.746H24.4596L24.4667 22.7883L24.509 22.8025L24.502 22.8377L24.5372 22.866L24.502 22.8942L24.5161 22.9083ZM25.6308 22.9294C25.6449 23.0564 25.3345 23.0635 25.3204 22.8518C25.3274 22.6331 25.6308 22.6331 25.6308 22.7531C25.5391 22.739 25.4826 22.7813 25.4826 22.8518C25.4897 22.9083 25.5391 22.9436 25.6308 22.9294ZM19.909 22.5696H23.1403L23.1474 22.5555L23.1403 19.5429H26.4351V22.5626H23.2532V22.5696C23.4296 23.1834 23.5918 23.6985 23.7612 24.1359H24.7983V23.9736C24.7489 24.0442 24.6713 24.0301 24.636 23.9525C24.5725 24.016 24.502 24.0018 24.4737 23.9172C24.4173 23.9807 24.3256 23.9666 24.3044 23.8748C24.2762 23.9736 24.2198 24.0442 24.0928 24.0371C23.9728 24.0724 23.9305 24.0724 23.9023 24.0442C23.8035 24.0794 23.7753 24.0794 23.74 24.0583L23.9728 23.2893C24.0152 23.1482 24.1069 23.0776 24.2974 23.1129C24.4667 23.1411 24.4596 23.3104 24.4173 23.4163C24.5443 23.4374 24.629 23.4445 24.763 23.4515C24.7701 23.4515 24.7771 23.4515 24.7771 23.4515C24.7701 23.4515 24.763 23.4445 24.756 23.4445C24.8124 23.3951 24.8265 23.3739 24.8547 23.3175H24.7912C24.8547 23.2681 24.8688 23.2469 24.89 23.1975C24.8406 23.2258 24.6925 23.3175 24.636 23.2258C24.636 23.2117 24.7983 23.1975 24.8124 23.1623C24.8053 23.1552 24.8124 23.1482 24.8053 23.1411C24.7348 23.1199 24.6783 23.127 24.6219 23.1552C24.6007 23.0635 24.6501 23.0282 24.8195 23.0282C25.1722 22.9224 25.0946 23.0494 25.2004 23.2258C25.1793 23.2258 25.151 23.2258 25.1299 23.2258C25.1581 23.2752 25.1652 23.2963 25.2145 23.3386C25.1793 23.3316 25.1581 23.3245 25.1369 23.3245C25.1581 23.381 25.1722 23.3951 25.2004 23.4374C25.2004 23.4374 25.1934 23.4374 25.1793 23.4445C25.1863 23.4445 25.1863 23.4445 25.1934 23.4515C25.2922 23.4304 25.3486 23.4163 25.4191 23.3951C25.3698 23.2893 25.3627 23.1552 25.5461 23.1058C25.6731 23.0776 25.779 23.134 25.8213 23.2187L26.2446 24.0512C26.2305 24.0865 26.1882 24.0865 26.0612 24.0512C26.0188 24.0724 25.9906 24.0794 25.8918 24.0371C25.8001 24.0512 25.7437 24.0371 25.6661 23.8748C25.652 23.9595 25.6026 23.9736 25.5179 23.9101C25.4968 24.0018 25.4333 24.0159 25.3698 23.9383C25.3556 24.023 25.2922 24.0371 25.2216 23.9807L25.2428 24.1429H26.428V24.3899H26.4351V24.9755C26.421 25.6669 25.3839 25.9632 24.8406 26.1748C24.248 25.5681 23.7329 24.6439 23.1474 22.5837C22.9498 23.2681 22.7664 23.8325 22.59 24.2911L22.4418 24.3052V24.1571H22.3501C22.4066 24.0301 22.3925 23.9807 22.4136 23.8748C22.4277 23.8113 22.4912 23.8184 22.4983 23.8607C22.5477 23.7972 22.4771 23.7196 22.3995 23.7902C22.3713 23.7408 22.3713 23.7267 22.3925 23.6773C22.4207 23.6491 22.4842 23.6561 22.4842 23.7055C22.5547 23.6632 22.456 23.4868 22.336 23.6279C22.3078 23.5926 22.3007 23.5715 22.3007 23.5433C22.3431 23.4939 22.3783 23.508 22.3854 23.5503C22.456 23.5009 22.3431 23.388 22.2584 23.4798C22.1808 23.3457 22.1244 23.0212 22.3148 22.9788C22.4277 22.9577 22.4912 23 22.5406 23.0706C22.5477 23.1058 22.5759 23.1552 22.5195 23.1764C22.5336 23.1975 22.5477 23.2117 22.5688 23.2187C22.4842 23.2752 22.6112 23.4092 22.6112 23.4798C22.6394 23.4374 22.6535 23.4163 22.6394 23.381C22.6535 23.3951 22.6535 23.4092 22.6606 23.4304C22.6958 23.381 22.6676 23.3457 22.6535 23.3175C22.6747 23.3316 22.6747 23.3457 22.6888 23.3598C22.7099 23.2681 22.6958 23.254 22.6676 23.2187C22.6958 23.2117 22.7029 23.1905 22.717 23.1764C22.6253 23.1693 22.5759 22.9718 22.463 22.9224C22.1244 22.8236 22.0397 23.1411 22.1314 23.4163C22.1667 23.5362 22.2514 23.7196 22.2866 23.8325C22.3078 23.9031 22.3078 24.0018 22.2443 24.1571H22.2372H22.1314V24.3052H21.9833C21.7504 24.1077 21.6869 23.9031 21.5458 23.7549C21.5882 23.7831 21.6587 23.8325 21.7363 23.8396C21.701 23.7902 21.6658 23.769 21.6658 23.7055C21.7363 23.7831 21.8422 23.7831 21.9056 23.762C21.828 23.6985 21.7787 23.6632 21.7716 23.5221C21.8422 23.5785 21.8633 23.6067 21.9056 23.6561C21.9762 23.5291 21.9339 23.4586 21.8704 23.3739C21.9268 23.4163 21.9127 23.3951 21.9762 23.4092C21.955 23.3528 21.9621 23.3457 21.9127 23.2963C21.9621 23.3175 21.9409 23.2963 21.9903 23.2963C21.9691 23.261 21.9833 23.2328 21.9127 23.1905C21.9621 23.1905 21.9621 23.1693 21.9833 23.1482C21.821 23.0988 21.9198 23.0423 21.7434 22.9859C21.7998 22.9083 21.6799 22.8518 21.6375 22.9294C21.6093 22.9153 21.6093 22.9083 21.5741 22.9012C21.5882 22.7883 21.44 22.8025 21.4612 22.9012C21.3765 22.9224 21.3553 22.9294 21.2918 22.9577C21.2848 22.9788 21.2848 22.9929 21.2848 23.0212C21.2142 23.0564 21.186 23.0706 21.1014 23.0988C21.0661 23.0988 21.059 23.127 21.1014 23.127C21.1014 23.1482 21.1155 23.2187 21.1225 23.254C21.1225 23.2752 21.1366 23.2752 21.1437 23.254C21.1437 23.2469 21.2072 23.1975 21.2283 23.1975C21.2283 23.1764 21.2425 23.1764 21.2425 23.1975C21.2636 23.2046 21.2777 23.2258 21.2777 23.2963C21.0167 23.2752 20.9885 23.2752 20.9673 23.2258C20.9532 23.1693 20.9179 23.1834 20.9461 23.2399C20.9602 23.2752 20.9673 23.2963 21.2707 23.3175C21.2425 23.3457 21.2142 23.3528 21.1578 23.3528C21.1578 23.3245 21.1437 23.3245 21.1437 23.3528C21.1366 23.3528 21.1296 23.3669 21.1296 23.388C21.1155 23.4021 21.1084 23.4163 21.1084 23.4163C21.0449 23.4092 21.0096 23.381 20.9109 23.388C20.805 23.2399 20.6498 23.3245 20.5087 23.0776H20.5017L20.544 23.0564L20.5934 23.1552L20.6498 23.127L20.5934 23.0353C20.7909 22.9506 20.9179 22.9153 21.1578 22.9083C21.2354 22.8307 21.2707 22.8025 21.3412 22.7178C21.0167 22.6966 20.8262 22.8025 20.5652 22.9718H20.5581L20.5017 22.866L20.4523 22.8942L20.4875 22.9506C20.4593 22.9153 20.4099 22.8871 20.3535 22.9153C20.29 22.9153 20.2618 22.9224 20.2406 22.9718C20.163 22.9788 20.163 23.1199 20.2195 23.1411H20.2265L20.1912 23.1552L20.2265 23.2046L20.2971 23.1693C20.2971 23.2046 20.3041 23.2187 20.3323 23.2399C20.3464 23.2258 20.3676 23.2117 20.3817 23.2046C20.3888 23.254 20.3958 23.2893 20.417 23.3457C20.4382 23.3245 20.4452 23.3175 20.4593 23.3034C20.4593 23.3669 20.4664 23.388 20.4805 23.4374C20.5017 23.4163 20.5228 23.4021 20.5369 23.388C20.5299 23.4515 20.5299 23.4939 20.5652 23.5291C20.5793 23.508 20.5793 23.4868 20.5863 23.4656C20.6145 23.4939 20.6498 23.5291 20.7063 23.5574C20.7063 23.5715 20.7274 23.5856 20.7345 23.5997C20.6992 23.635 20.678 23.635 20.6357 23.642C20.6851 23.6773 20.7133 23.6773 20.7768 23.6632C20.7486 23.6914 20.7415 23.7196 20.6992 23.7337C20.7486 23.7479 20.7698 23.7479 20.8121 23.7479C20.6992 23.7479 20.6357 23.769 20.5228 23.8537C20.5369 23.8043 20.5652 23.7479 20.5158 23.7549C20.4946 23.769 20.4734 23.762 20.4523 23.7408C20.4241 23.7408 20.4311 23.7761 20.4311 23.8113C20.4241 23.7549 20.4099 23.7055 20.3747 23.7196C20.3606 23.7479 20.3464 23.762 20.2971 23.7549C20.2829 23.769 20.2971 23.7831 20.3112 23.7972C20.3182 23.8043 20.3253 23.8113 20.3323 23.8184C20.3323 23.8184 20.3182 23.8113 20.3112 23.7972C20.29 23.7761 20.2688 23.769 20.2547 23.7972C20.2618 23.8325 20.2547 23.8466 20.2336 23.8678C20.2406 23.9031 20.2477 23.896 20.3112 23.896C20.2547 23.896 20.2406 23.9031 20.2265 23.9313C20.2547 23.9595 20.2618 23.9877 20.2618 24.016C20.3041 24.0442 20.4029 23.9948 20.4382 23.9525C20.4452 23.9736 20.4452 23.9948 20.4382 24.016C20.5158 23.9948 20.5793 23.9595 20.5934 23.9313C20.6004 23.9525 20.5863 23.9736 20.5934 24.0089C20.6357 23.9948 20.6639 23.9877 20.6992 23.9525C20.6922 23.9807 20.6851 23.9877 20.678 24.023C20.7415 24.0089 20.7556 24.0018 20.7909 23.9525C20.7839 23.9877 20.7909 23.9877 20.7909 24.016C20.8615 23.9807 20.8685 23.9877 20.9109 23.9313C20.8968 23.9736 20.9038 23.9807 20.9038 24.0089C20.9673 23.9736 20.9885 23.9595 21.0096 23.9101C21.0167 23.9313 21.0167 23.9454 21.0237 23.9807C21.059 23.9595 21.0802 23.9383 21.1155 23.896C21.1225 23.9172 21.1014 23.9383 21.1014 23.9666C21.1507 23.9525 21.179 23.9383 21.2001 23.9101C21.2566 24.1006 21.5035 24.1006 21.5458 24.2064V24.3123H21.2354V24.1641H20.9179V24.3123H20.6075V24.1641H20.2547V24.3123H19.902L19.909 22.5696ZM20.1207 22.0193V20.5166C20.1207 20.2837 20.3041 20.065 20.5652 20.1215C20.7768 20.1638 20.8756 20.2696 20.7768 20.4742C20.9109 20.5518 21.0026 20.5871 21.1931 20.6224C21.2213 20.566 21.2636 20.5025 21.306 20.4531C21.2777 20.4601 21.2707 20.4601 21.2425 20.4672C21.306 20.4107 21.3765 20.3896 21.3906 20.3331C21.3977 20.2979 21.3553 20.2344 21.3271 20.2132C21.2989 20.2202 21.2707 20.2132 21.2425 20.2132V20.3472H21.1648V20.1779C21.1437 20.192 21.1296 20.2061 21.1155 20.2344C21.052 20.1356 21.0943 20.0791 21.1648 20.0509C21.1648 19.9874 21.1648 19.938 21.1648 19.8745C21.1296 19.8745 21.0943 19.8816 21.0449 19.8887C21.0449 19.8534 21.0379 19.8181 21.0379 19.7899C21.0943 19.7969 21.1084 19.7969 21.1648 19.7969C21.1648 19.7617 21.1507 19.7123 21.1437 19.677C21.186 19.677 21.2213 19.677 21.2636 19.677C21.2566 19.7123 21.2425 19.7546 21.2425 19.7969C21.2989 19.7969 21.3201 19.7969 21.3624 19.7828C21.3624 19.8181 21.3624 19.8463 21.3624 19.8745C21.3271 19.8675 21.2707 19.8675 21.2425 19.8675C21.2425 19.9098 21.2495 19.9874 21.2495 20.0298C21.2636 20.0227 21.2777 20.0227 21.2918 20.0227C21.3412 19.9239 21.5035 19.9028 21.6093 19.9239C21.7575 19.9592 21.7363 20.1215 21.8704 20.1991C21.828 20.2132 21.828 20.2202 21.7928 20.2061C21.8069 20.2767 21.8422 20.2979 21.8633 20.3543C21.828 20.3472 21.828 20.3472 21.7998 20.3402C21.8351 20.3896 21.8633 20.446 21.8704 20.4883C21.8351 20.4813 21.8351 20.4813 21.7998 20.4813C21.821 20.5236 21.8563 20.5942 21.8563 20.6294C22.0468 20.6153 22.1314 20.6012 22.2443 20.5307C22.1737 20.3331 22.1596 20.2202 22.4207 20.1356C22.6182 20.1003 22.8863 20.1497 22.8863 20.566V21.984C22.8934 22.0969 22.9075 22.1534 22.971 22.2169C22.8722 22.1886 22.8017 22.1534 22.7029 21.977C22.6464 21.9699 22.59 21.9347 22.5053 21.7794C22.336 21.7301 22.3219 21.723 22.3219 21.1727C22.3007 21.2221 22.2866 21.2221 22.2302 21.2433C22.1667 21.2291 22.1455 21.2009 22.1244 21.1656C22.1102 21.208 22.0961 21.2221 22.0397 21.2291C22.0185 21.215 22.0044 21.208 21.9762 21.1727C22.0256 21.2644 22.1455 21.4479 22.2302 21.5748C22.1737 21.5607 22.1596 21.5537 22.1032 21.5396C22.202 21.7089 22.2161 21.7512 22.3431 21.9488C22.3501 21.9699 22.3572 21.9629 22.3783 21.9629C22.4489 21.9699 22.4701 21.9276 22.5124 21.9699V21.977C22.5547 21.9629 22.6041 21.984 22.59 22.0546C22.5759 22.0334 22.5618 22.0193 22.5265 22.0193V22.0334C22.463 22.0546 22.4771 22.0123 22.3995 22.0264C22.4489 22.0899 22.5053 22.0687 22.5195 22.1322C22.5195 22.1393 22.5195 22.1463 22.5124 22.1463V22.1604C22.5406 22.1887 22.5336 22.231 22.5053 22.2663C22.4912 22.1816 22.463 22.1957 22.456 22.1816H22.4489C22.4489 22.1816 22.4348 22.1816 22.4207 22.1816C22.336 22.111 22.3925 22.0969 22.3572 22.0405C22.3431 22.0334 22.3431 22.0334 22.329 22.0475C22.3007 22.1393 22.3713 22.1463 22.3007 22.2098C22.2937 22.2098 22.2866 22.2098 22.2796 22.2098C22.2937 22.238 22.2372 22.2098 22.2302 22.2945C22.1667 22.2451 22.1808 22.2028 22.209 22.1957C22.209 22.1887 22.1949 22.1957 22.1949 22.1887C22.202 22.1534 22.2584 22.111 22.2937 22.0475C22.2937 22.0334 22.2937 22.0334 22.2725 22.0264C22.1949 22.0546 22.2372 22.0828 22.1385 22.0969C22.1314 22.0899 22.1314 22.0899 22.1314 22.0899C22.1173 22.1181 22.082 22.0828 22.075 22.1463C22.0326 22.111 22.0538 22.0405 22.1032 22.0405C22.1102 22.0405 22.0961 22.0334 22.1032 22.0193C22.1314 21.9911 22.1667 22.0123 22.2372 21.977C22.2514 21.9699 22.2443 21.9629 22.2443 21.9629C22.1667 21.8571 22.0468 21.7089 21.9833 21.6031C21.9833 21.6595 21.9621 21.716 21.9409 21.7442C21.8845 21.6242 21.8563 21.5819 21.7716 21.4549C21.7575 21.4761 21.7645 21.469 21.7363 21.4831C21.7222 21.4831 21.701 21.462 21.694 21.462C21.7575 21.7794 21.7857 21.85 21.948 22.111C21.9127 22.1463 21.7857 22.1816 21.7363 22.2098C21.7575 22.2451 21.7787 22.2733 21.7998 22.3086C21.701 22.365 21.6517 22.3933 21.5106 22.4356C21.3765 22.3933 21.3271 22.3721 21.1931 22.3086C21.2213 22.2663 21.2425 22.231 21.2566 22.1887C21.1578 22.1393 21.1084 22.1181 21.0026 22.0687C21.2425 21.7512 21.2707 21.716 21.3553 21.4549C21.3412 21.462 21.3342 21.462 21.313 21.4761C21.306 21.462 21.2918 21.4337 21.2777 21.4267C21.2072 21.5537 21.1931 21.5537 21.1014 21.6595C21.0802 21.6313 21.0661 21.6172 21.0661 21.5819C21.0449 21.6101 20.932 21.7089 20.7274 21.9135C20.7274 21.9135 20.7274 21.9276 20.7345 21.9276C20.798 21.9629 20.8403 21.9417 20.8685 21.9629C20.8756 21.977 20.8756 21.977 20.8685 21.984H20.8615C20.8968 22.0052 20.932 22.0617 20.8968 22.0899C20.8968 22.0264 20.8544 22.0546 20.8474 22.0334C20.8474 22.0405 20.8474 22.0405 20.8333 22.0405C20.798 22.0405 20.6851 21.9558 20.6851 21.9982C20.7133 22.0546 20.7768 22.0899 20.7839 22.1252C20.7768 22.1322 20.7486 22.1252 20.7627 22.1393C20.7839 22.1534 20.8121 22.1887 20.7486 22.238C20.7486 22.1675 20.7063 22.1816 20.6992 22.1675C20.6992 22.1604 20.6992 22.1675 20.6922 22.1675C20.6357 22.1604 20.671 22.0899 20.6498 22.0052C20.6428 21.9911 20.6428 21.9911 20.6216 21.9982C20.5793 22.0475 20.6428 22.0687 20.551 22.1322C20.5369 22.1393 20.5299 22.1322 20.5228 22.1322C20.5158 22.1604 20.4875 22.1322 20.4734 22.2169C20.4382 22.1816 20.4311 22.1393 20.4664 22.104C20.4734 22.0969 20.4593 22.0969 20.4593 22.0828C20.4734 22.0264 20.5299 22.0405 20.5722 21.977C20.5017 21.9629 20.5158 21.9982 20.4523 21.9699C20.4099 21.9629 20.3958 21.977 20.3817 22.0052C20.3606 21.9347 20.417 21.9135 20.4593 21.9276C20.5017 21.8853 20.5228 21.9276 20.5934 21.9206C20.6145 21.9206 20.6216 21.9206 20.6287 21.9064C20.6851 21.85 20.9109 21.5819 20.9673 21.5184C20.925 21.5396 20.8968 21.5325 20.8474 21.5184C20.8968 21.4408 20.9814 21.2785 21.0449 21.1515C21.0449 21.1515 21.0167 21.2009 20.9814 21.215C20.9391 21.2009 20.925 21.1868 20.9038 21.1445C20.8756 21.1939 20.8615 21.1868 20.8121 21.2221C20.7627 21.208 20.7415 21.1868 20.7133 21.1515C20.6922 21.3702 20.671 21.5678 20.5228 21.6525C20.4875 21.7794 20.4452 21.8359 20.2971 21.8994C20.2688 22.0052 20.1912 22.1181 20.0501 22.1675C20.0925 22.1252 20.1066 22.0828 20.1207 22.0193ZM20.4382 19.7405L20.4805 19.7123V19.6699L20.5228 19.6629L20.5369 19.6206L20.5934 19.6417L20.6287 19.6064L20.6639 19.6417L20.7133 19.6206L20.7274 19.6629L20.7698 19.6699V19.7123L20.8262 19.7264L20.8121 19.7758L20.8474 19.804L20.8121 19.8393L20.8262 19.8745L20.7909 19.8957L20.805 19.938H20.7556L20.7415 19.9874L20.6922 19.9592L20.6428 19.9945L20.6075 19.9592L20.5581 19.9804L20.544 19.938H20.4946L20.5017 19.8957L20.4523 19.8887L20.4593 19.8393L20.417 19.804L20.4593 19.7758L20.4382 19.7405ZM21.9833 19.6982C21.9833 19.5994 22.3854 19.55 22.3925 19.8181C22.3783 20.0721 21.9833 20.0368 21.9833 19.9169C22.1102 19.9804 22.1949 19.8957 22.1949 19.8181C22.1879 19.7475 22.0891 19.6629 21.9833 19.6982ZM24.3891 26.189C24.2903 26.2031 24.0998 26.2172 24.001 26.1113C23.867 26.2313 23.6977 26.2736 23.5566 26.2383H23.5495C23.4578 26.323 23.3379 26.2807 23.4578 26.2031C23.359 26.1819 23.225 26.1396 23.225 26.0337C23.2391 25.9985 23.2814 25.9985 23.3167 26.0337H23.3237C23.3731 25.9985 23.359 26.0196 23.3943 25.9632C23.2109 25.7727 23.6836 25.5963 23.5707 25.5187C23.5142 25.4764 23.4719 25.5328 23.4366 25.5752C23.3872 25.4834 23.4578 25.3988 23.5989 25.3988C23.5495 25.2929 23.4648 25.1095 23.3731 24.9966C23.2955 24.9049 23.225 24.7144 23.2673 24.4745C23.359 24.0794 23.2814 24.15 23.2532 24.0301C23.2179 23.889 23.2602 23.8325 23.3802 23.769C23.2955 23.9031 23.606 23.9877 23.486 24.1923C23.8388 24.2488 23.606 24.5451 23.7047 24.7003C23.4437 24.6086 23.5989 24.411 23.4437 24.411C23.352 24.404 23.7047 24.9049 23.7047 24.9402C23.7188 24.919 23.74 24.912 23.7682 24.912C23.7964 24.8837 23.8106 24.8767 23.8458 24.8767C23.8317 24.9966 23.8317 25.0107 23.8388 25.1166C23.9375 25.2436 24.0293 25.3635 24.0645 25.4482C24.128 25.5752 24.1351 25.8009 24.0434 25.9985C24.1422 25.942 24.1986 25.935 24.2691 25.8856C24.2833 25.9209 24.2903 25.9561 24.2833 25.9844C24.3256 25.9914 24.3468 25.9844 24.4173 26.0408C24.3609 26.0549 24.3044 26.069 24.2762 26.1113C24.3326 26.1113 24.382 26.1466 24.3891 26.189ZM22.8793 26.2031C22.9851 26.2736 22.8863 26.3089 22.7946 26.2383L22.7805 26.2313C22.6323 26.2736 22.456 26.2313 22.3148 26.1113C22.1879 26.2383 22.0185 26.2172 21.8915 26.2313C21.9056 26.1819 21.948 26.1396 22.0044 26.1325C21.9691 26.0761 21.9339 26.062 21.8704 26.0549C21.9198 26.0196 21.9621 26.0196 22.0185 25.9985C22.0115 25.9632 22.0044 25.9279 22.0185 25.8926C22.0961 25.942 22.1526 25.9491 22.2584 26.0055C22.1596 25.808 22.1667 25.5822 22.2302 25.4552C22.2796 25.3564 22.3925 25.2224 22.5124 25.0672L22.4701 25.1166C22.4842 25.0107 22.4842 24.9966 22.4701 24.8767C22.5053 24.8767 22.5265 24.8837 22.5477 24.912C22.5829 24.912 22.5971 24.919 22.6182 24.9402C22.844 24.665 23.0486 24.404 22.8934 24.411C22.7311 24.411 22.8934 24.6086 22.6182 24.7003C22.7241 24.5451 22.4771 24.2558 22.851 24.1923C22.7241 23.9807 23.0415 23.9031 22.9569 23.769C23.0839 23.8325 23.1191 23.889 23.0909 24.0301C23.0627 24.1429 22.9851 24.0724 23.0768 24.4745C23.1191 24.7144 23.0486 24.8979 22.971 24.9966C22.8793 25.1025 22.7875 25.2859 22.7382 25.3988C22.8863 25.3988 22.9639 25.4834 22.9075 25.5752C22.8722 25.5328 22.8299 25.4764 22.7664 25.5187C22.6535 25.5963 23.1403 25.7727 22.9498 25.9632C22.9851 26.0196 22.9639 25.9985 23.0204 26.0337C23.0556 25.9985 23.098 25.9985 23.1191 26.0337C23.1333 26.1396 22.9851 26.1819 22.8793 26.2031ZM21.5247 25.5117V25.0107L21.6305 24.8696L21.828 24.785L22.0256 24.8626L22.1385 25.0107L22.1808 25.1801C22.0961 25.3282 22.0256 25.4623 21.9409 25.5893C21.8986 25.5681 21.8422 25.5469 21.821 25.5187C21.7504 25.6175 21.6093 25.5963 21.5247 25.5117ZM20.8968 25.5258C20.7768 25.5893 20.6498 25.5752 20.5722 25.4693C20.4734 25.5822 20.3535 25.5822 20.2547 25.5187V25.0107L20.3888 24.8414L20.5793 24.792L20.7839 24.8626L20.8897 25.0248V25.5258H20.8968ZM20.4664 25.9773C21.3624 26.2666 22.2514 26.5699 23.1403 26.8733C24.1351 26.5699 26.4492 25.9844 26.5903 25.166C26.5974 25.1166 26.6044 25.0107 26.6044 24.9613L26.5974 19.3383H19.7256V25.1871C19.7256 25.2012 19.7256 25.2153 19.7256 25.2224C19.7679 25.6104 20.1207 25.8221 20.4664 25.9773Z" fill="white"/>
<path fill-rule="evenodd" clip-rule="evenodd" d="M24.4169 24.8273H24.4875V24.9331H24.6356V24.7426H24.5651V24.6509H24.6356V24.5028H24.5651V24.5804H24.4875V24.5028H24.4169V24.5804H24.3393V24.5028H24.2617V24.6509H24.3393V24.7426H24.2617V24.9331H24.4169V24.8273Z" fill="white"/>
<path fill-rule="evenodd" clip-rule="evenodd" d="M26.7738 25.166C26.809 26.0337 25.4756 26.2525 23.1403 27.1273C20.9179 26.3653 19.5916 26.1819 19.5563 25.3494V19.1831H26.7808V25.166H26.7738ZM21.4965 15.6132V15.458C21.7857 15.4509 22.1103 15.5638 22.2796 15.5991L22.3713 15.8248C22.1385 15.7331 21.7646 15.6132 21.4965 15.6132ZM22.8087 14.9288V14.9359C22.837 15.0629 22.7593 15.1969 22.6253 15.2252C22.4983 15.2604 22.3643 15.1758 22.336 15.0488C22.336 15.0417 22.336 15.0417 22.336 15.0347L22.8087 14.9288ZM25.8989 27.2402C25.906 27.2472 25.906 27.2543 25.906 27.2543L25.8989 27.2402ZM25.913 27.2402C25.9201 27.2543 25.9201 27.2684 25.9271 27.2755C25.913 27.2684 25.913 27.2543 25.913 27.2402ZM29.7863 21.9206C29.8216 21.9206 29.998 22.0264 30.0262 22.0264C29.8146 21.3773 29.8639 20.4601 29.8781 19.4442C29.9416 19.4724 30.0756 19.5782 30.1462 19.6064C30.0897 19.0279 30.1038 18.9009 30.1038 18.5693C30.1038 16.5445 29.0526 16.0083 28.2271 15.7825C26.7526 15.4439 25.7296 16.608 26.0823 17.8426C25.9977 18.2307 25.786 18.5199 25.4192 18.6893C25.1228 18.788 24.7066 18.8163 24.5302 18.4776C24.6078 18.527 24.6643 18.5552 24.763 18.5552C24.6713 18.4635 24.6219 18.3294 24.5796 18.1672C24.509 17.9061 24.4667 17.5816 24.2974 17.2994C24.4597 17.4405 24.5231 17.5887 24.5796 17.7227C24.6643 17.3417 24.5443 16.8761 24.375 16.6715C24.5161 16.742 24.5231 16.7279 24.6219 16.8337C24.6501 16.6221 24.6149 16.5304 24.5514 16.3963C24.5443 16.0929 24.5161 15.9942 24.375 15.8178C24.5231 15.8813 24.6219 15.8742 24.756 15.7966C24.5584 15.7331 24.4314 15.6132 24.2903 15.4015C24.1139 15.1334 24.0857 14.6607 23.486 14.6678C23.1897 14.6748 22.9357 14.6255 22.4419 14.7101C22.3008 14.7313 21.9621 14.8442 21.6587 14.8301L21.687 14.9923L21.5247 15.0276C21.5106 15.0347 21.4965 15.0347 21.4823 15.0417V14.8794V14.8512V14.7948V14.5267C21.7011 14.5267 21.8916 14.5479 22.0962 14.5761L22.0891 14.1598C21.8704 14.1951 21.6658 14.2092 21.4471 14.2233C21.4753 14.0187 21.4965 13.8353 21.5317 13.6307C21.3906 13.6448 21.2495 13.6448 21.1084 13.6307C21.1437 13.8282 21.1649 14.0117 21.186 14.2163C20.9814 14.2021 20.7839 14.188 20.5793 14.1669L20.5934 14.569C20.6781 14.5549 21.059 14.5479 21.1931 14.5408V15.1052C20.9744 15.1758 20.7839 15.331 20.9603 15.7472C21.0238 15.6061 21.0661 15.5144 21.1931 15.4721C21.1931 16.1282 21.2425 16.8549 21.0802 17.4828C21.313 17.4052 21.3906 17.3982 21.6235 17.4758C21.4682 16.9255 21.4753 16.3258 21.4894 15.7614C21.5106 15.7614 21.5388 15.7614 21.56 15.7684C21.8986 15.8107 22.2443 15.9448 22.3431 16.3258C22.4348 16.6785 22.1526 16.8761 22.0044 17.1583C21.7152 17.7368 21.821 18.2166 21.5529 18.5058C21.6446 18.5129 21.7363 18.4988 21.7363 18.4988C21.5247 18.788 21.1155 18.788 20.805 18.6963C20.5581 18.6046 20.3041 18.3012 20.1912 17.9555C20.6498 16.4598 19.1047 15.5144 17.99 15.839C17.3974 16.0153 16.2403 16.3893 16.1909 18.661C16.1557 18.9926 16.2121 19.1902 16.1274 19.5288C16.2333 19.4936 16.2756 19.4794 16.3673 19.4301C16.3673 20.3684 16.3673 21.6313 16.1698 22.0475C16.2756 22.0193 16.3532 21.9699 16.4096 21.9206C16.4943 25.808 16.5366 28.6583 16.2615 29.3356C16.6777 29.2015 16.8682 29.138 17.1081 28.8488C17.2281 28.8276 17.3339 28.8135 17.4397 28.7853V24.016C17.2563 23.3104 17.0799 22.6049 16.9106 21.8994C16.8471 21.6242 16.833 21.4408 16.9106 21.1656L16.9882 20.8834L17.2139 21.0739C17.3057 21.1515 17.3762 21.2291 17.4327 21.2997V18.3436C17.4327 18.2871 17.482 18.2377 17.5385 18.2377C17.5949 18.2377 17.6443 18.2871 17.6443 18.3436V21.723C18.1241 23.1058 18.4909 24.531 18.8578 25.9491V17.765C18.8578 17.7015 18.9072 17.6592 18.9636 17.6592C19.0201 17.6592 19.0695 17.7015 19.0695 17.765V26.7745C19.0906 26.8663 19.1189 26.9509 19.14 27.0426C19.3446 26.7675 19.4716 26.4712 19.5492 26.0337C19.6833 26.2172 19.909 26.3724 20.2336 26.5135C19.9725 26.965 19.9302 27.0991 19.5069 27.3248C19.8103 27.4589 20.1207 27.4801 20.3958 27.3107C20.3888 27.3319 20.3888 27.346 20.3817 27.3601C20.2971 27.5153 20.2336 27.6494 20.163 27.7834C20.0713 27.9457 19.9937 28.0092 19.8808 28.1433C19.648 28.2209 19.5422 28.1009 19.2882 28.1574C19.2811 28.1644 19.2741 28.1644 19.2741 28.1644C19.2529 28.1221 19.2388 28.0798 19.2529 28.0727C19.2882 28.0656 19.3093 28.0445 19.3235 28.0163C19.3517 28.0163 19.4081 27.981 19.4222 27.9598C19.4716 27.9669 19.4998 27.9387 19.5139 27.9104L19.8738 27.8046C19.9161 27.8258 19.9655 27.8399 19.9796 27.8117C20.0995 27.7623 20.1277 27.6917 20.1419 27.6423C20.1066 27.6071 20.0219 27.5506 19.902 27.6C19.8667 27.5718 19.8314 27.6353 19.8244 27.6635L19.4646 27.7764C19.4222 27.7552 19.3799 27.7482 19.3446 27.7764C19.3093 27.7552 19.2529 27.7623 19.2317 27.7975C19.2176 27.7905 19.1682 27.7693 19.14 27.7764C18.5968 25.8503 18.11 23.6985 17.4468 21.8006C17.3621 21.5607 17.2704 21.4196 17.0799 21.2503C17.0093 21.4972 17.0235 21.6454 17.0799 21.8853C17.5314 23.7972 18.1452 25.9914 18.6462 27.9104C18.6532 27.9104 18.5756 27.9316 18.5544 27.9669C18.5262 27.9528 18.4698 27.981 18.4486 28.0092C18.4133 28.0092 18.371 28.0304 18.3639 28.0656L18.0182 28.1715C17.9689 28.1503 17.9406 28.1433 17.9124 28.1785C17.8207 28.1856 17.7501 28.2844 17.736 28.3337C17.7713 28.369 17.8701 28.4184 17.9759 28.3761C18.0112 28.3831 18.0606 28.3549 18.0817 28.3126L18.4204 28.2138C18.4486 28.2491 18.505 28.235 18.5333 28.2138C18.5615 28.235 18.632 28.2209 18.6462 28.1997C18.6814 28.2279 18.7167 28.2279 18.752 28.2209C18.7661 28.2138 18.7731 28.2138 18.7873 28.2138C18.7943 28.2279 18.8084 28.2914 18.8225 28.3479C18.5897 28.4466 18.5685 28.5525 18.6179 28.6653C18.6179 28.6794 18.625 28.7006 18.632 28.7218C18.5121 28.7571 18.4133 28.9052 18.4768 29.0252C18.4768 29.0816 18.505 29.1239 18.5544 29.1663H18.5615H18.5685C18.4839 29.265 18.4274 29.4485 18.6814 29.4837C18.6462 29.7025 18.7731 29.6883 18.8719 29.7236C18.9284 29.773 18.9707 29.7871 19.0554 29.8153C19.1894 29.8224 19.26 29.8506 19.3799 29.9141C19.4787 29.9423 19.5633 29.9353 19.6692 29.8859C19.7256 29.8506 19.7468 29.8224 19.7679 29.773C19.9161 29.7095 19.9443 29.6742 19.9725 29.512C20.1207 29.3285 20.2265 28.8488 20.2547 28.7571C20.3888 28.3408 20.6146 27.988 20.8897 27.6282C20.8403 27.9245 20.9038 28.2773 21.1366 28.4537C21.1719 27.8117 21.433 27.4801 21.7222 27.0426C21.8069 27.0709 21.9833 27.0285 21.9762 27.1202C21.8069 28.7288 20.6781 29.265 20.1489 29.7377C20.3465 29.9141 20.6004 30.0834 20.8192 30.281C20.7557 30.3798 20.6992 30.4291 20.6216 30.5279C20.7698 30.6196 21.3836 31.0006 21.56 31.1064C21.4965 31.2264 21.4259 31.311 21.3342 31.4451C22.0185 31.8825 22.3643 32.0518 23.0627 32.454C23.0698 32.4469 24.1986 31.9107 24.9182 31.4945C24.8547 31.4028 24.7842 31.2969 24.7066 31.184C25.0946 30.9583 25.4192 30.7396 25.7155 30.542C25.6379 30.4503 25.5885 30.4009 25.5038 30.2951C25.8777 30.027 25.906 29.9988 26.1952 29.7801C25.01 28.6724 24.6008 28.3196 24.1492 27.0497C24.2833 27.0074 24.4103 26.958 24.5302 26.9156C24.89 27.4166 25.0664 27.6212 25.2146 28.3126C25.4615 28.0727 25.405 27.8328 25.4192 27.5012L25.4474 27.5294H25.4403C25.4403 27.5224 25.4333 27.5224 25.4262 27.5153C25.4333 27.5153 25.4333 27.5153 25.4333 27.5224C25.4262 27.5224 25.4262 27.5153 25.4192 27.5153C25.6873 27.9669 25.8495 28.2138 26.0612 28.5736C26.0894 28.7782 26.0894 28.877 26.1388 28.9899H26.1458C26.1811 29.0745 26.2305 29.1521 26.3293 29.265C26.3293 29.4061 26.4492 29.5402 26.555 29.5896C26.5621 29.6319 26.5692 29.646 26.5903 29.6813C26.6679 29.766 26.8866 29.773 27.0066 29.7448C27.0983 29.6672 27.1547 29.6742 27.2394 29.6531C27.3311 29.639 27.3311 29.6319 27.4299 29.6107C27.5146 29.5684 27.5781 29.5472 27.6274 29.5261C27.6909 29.4696 27.6839 29.3638 27.6274 29.3144C27.7544 29.2227 27.9308 29.1239 27.7615 29.004C27.7544 29.004 27.7403 28.9899 27.7333 28.9899C27.8109 28.8558 27.7897 28.7077 27.698 28.6018C27.698 28.3972 27.5992 28.2914 27.444 28.1503H27.437C27.7262 27.1626 28.0296 25.8997 28.3259 24.7638C28.4529 24.7709 28.4811 24.7003 28.4952 24.6298C28.594 24.6015 28.6081 24.531 28.5446 24.4534C28.6646 24.404 28.6716 24.3264 28.6434 24.2276C29.0173 23.8043 29.2784 23.5221 29.3277 23.3739C29.363 23.2187 29.2431 22.9083 29.1231 22.4709C29.1373 22.4215 29.1655 22.3086 29.0385 22.2804C29.0244 22.2733 29.0173 22.2592 29.0103 22.2521C29.0455 22.231 29.0738 22.1887 29.0738 22.1463C29.0738 22.0758 29.0173 22.0264 28.9468 22.0264C28.8762 22.0264 28.8198 22.0828 28.8198 22.1463C28.8198 22.1675 28.8268 22.1816 28.8339 22.2028C28.8057 22.2098 28.7845 22.2239 28.7563 22.238C28.6434 22.2098 28.5799 22.3086 28.5517 22.3721C28.2624 22.6825 27.9661 22.9083 27.9096 23.0564C27.8955 23.1905 27.9026 23.5221 27.9943 24.0512C27.8744 24.1077 27.8603 24.2064 27.9308 24.2982C27.825 24.3334 27.8179 24.404 27.8814 24.4745C27.8603 24.5663 27.8814 24.6156 27.9379 24.658C27.6698 25.7515 27.3876 26.7322 26.9643 28.0092C26.8796 27.988 26.5339 28.0445 26.3081 27.9598C26.1035 27.6706 25.9836 27.473 25.8636 27.2261C26.1741 27.3107 26.294 27.2896 26.6679 27.2261C26.2517 26.9862 26.1106 26.8874 25.8354 26.4641C26.1882 26.3018 26.4139 26.1607 26.5762 25.9632C26.6679 26.45 26.802 26.7181 27.1054 26.9368C27.1336 26.8521 27.1547 26.7675 27.183 26.6828V17.8215C27.183 17.758 27.2323 17.7156 27.2888 17.7156C27.3452 17.7156 27.3946 17.765 27.3946 17.8215V25.9702C27.5146 25.554 27.6204 25.1377 27.7262 24.7144C27.6909 24.658 27.6768 24.5945 27.6768 24.5239C27.6274 24.4252 27.6345 24.3193 27.698 24.2347C27.6839 24.1359 27.7121 24.0442 27.7827 23.9736C27.7544 23.7902 27.7262 23.6067 27.7192 23.4233C27.7121 23.2963 27.705 23.1552 27.7192 23.0353V23.0141L27.7333 22.9929C27.7827 22.866 27.9167 22.746 28.0155 22.6472C28.1425 22.5273 28.2695 22.4074 28.3965 22.2733C28.4458 22.1745 28.5235 22.0969 28.6222 22.0617V18.4282C28.6222 18.3647 28.6716 18.3224 28.7281 18.3224C28.7845 18.3224 28.8339 18.3647 28.8339 18.4282V21.8641C28.8692 21.85 28.9115 21.8429 28.9538 21.8429C29.1231 21.8429 29.2713 21.977 29.2713 22.1463C29.2713 22.1675 29.2713 22.1887 29.2643 22.2098C29.2995 22.2451 29.3136 22.2874 29.3207 22.3368C29.3277 22.3791 29.3277 22.4215 29.3207 22.4638C29.3701 22.6402 29.4195 22.8095 29.4689 22.9788C29.5041 23.1129 29.5465 23.2752 29.5112 23.4092V23.4163V23.4233C29.4689 23.5503 29.3419 23.7055 29.2572 23.8043C29.1302 23.9595 28.9891 24.1147 28.855 24.2699C28.8621 24.3193 28.848 24.3687 28.8339 24.411V28.5666C28.982 28.6583 29.1302 28.7147 29.2572 28.7147C29.5182 28.9334 29.6664 28.9969 30.0192 29.0745C29.6382 28.5877 29.8075 24.9543 29.7863 21.9206Z" fill="white"/>
<path fill-rule="evenodd" clip-rule="evenodd" d="M18.0395 27.9739L18.2723 27.9034C18.3076 27.8681 18.3499 27.8469 18.3922 27.8328C18.4134 27.8187 18.4345 27.8046 18.4557 27.7975C18.2017 26.8098 17.9336 25.8221 17.6655 24.8344V28.1221C17.7149 28.0656 17.7855 28.0233 17.849 28.0021C17.9125 27.9598 17.976 27.9598 18.0395 27.9739Z" fill="white"/>
<path fill-rule="evenodd" clip-rule="evenodd" d="M28.5234 24.9261C28.4387 25.2506 28.3541 25.5681 28.2694 25.8926C28.1283 26.4641 27.9801 27.0497 27.8179 27.6212C28.0084 27.8258 28.213 28.0092 28.3611 28.0445C28.4387 28.1856 28.5375 28.3126 28.6504 28.4184V24.8132C28.6292 24.8696 28.5798 24.912 28.5234 24.9261Z" fill="white"/>
<path fill-rule="evenodd" clip-rule="evenodd" d="M25.5107 24.8273H25.5812V24.9331H25.7294V24.7426H25.6588V24.6509H25.7294V24.5028H25.6588V24.5804H25.5812V24.5028H25.5107V24.5804H25.4331V24.5028H25.3555V24.6509H25.4331V24.7426H25.3555V24.9331H25.5107V24.8273Z" fill="white"/>
<path fill-rule="evenodd" clip-rule="evenodd" d="M25.1582 25.0319H25.0806V25.1871H25.1582V25.2788H25.0806V25.4693H25.2358V25.3564H25.3134V25.4693H25.4545V25.2788H25.3839V25.1871H25.4545V25.0319H25.3839V25.1166H25.3134V25.0319H25.2358V25.1166H25.1582V25.0319Z" fill="white"/>
<path fill-rule="evenodd" clip-rule="evenodd" d="M24.6147 25.0319H24.5371V25.1871H24.6147V25.2788H24.5371V25.4693H24.6923V25.3564H24.7629V25.4693H24.911V25.2788H24.8405V25.1871H24.911V25.0319H24.8405V25.1166H24.7629V25.0319H24.6923V25.1166H24.6147V25.0319Z" fill="white"/>
<path fill-rule="evenodd" clip-rule="evenodd" d="M24.9607 24.8273H25.0383V24.9331H25.1794V24.7426H25.1159V24.6509H25.1794V24.5028H25.1159V24.5804H25.0383V24.5028H24.9607V24.5804H24.8901V24.5028H24.8125V24.6509H24.8901V24.7426H24.8125V24.9331H24.9607V24.8273Z" fill="white"/>
<path fill-rule="evenodd" clip-rule="evenodd" d="M25.7085 25.0319H25.6309V25.1871H25.7085V25.2788H25.6309V25.4693H25.7861V25.3564H25.8566V25.4693H26.0048V25.2788H25.9342V25.1871H26.0048V25.0319H25.9342V25.1166H25.8566V25.0319H25.7861V25.1166H25.7085V25.0319Z" fill="white"/>
<path fill-rule="evenodd" clip-rule="evenodd" d="M26.061 24.8273H26.1315V24.9331H26.2726V24.7426H26.2091V24.6509H26.2726V24.5028H26.2091V24.5804H26.1315V24.5028H26.061V24.5804H25.9834V24.5028H25.9058V24.6509H25.9834V24.7426H25.9058V24.9331H26.061V24.8273Z" fill="white"/>
<path fill-rule="evenodd" clip-rule="evenodd" d="M23.9233 21.1092C24.015 21.1092 24.0573 21.0951 24.2125 21.0457C24.1773 21.0951 24.1914 21.1515 24.2266 21.1868C24.2266 21.2432 24.2337 21.2856 24.276 21.335C24.276 21.3773 24.276 21.4055 24.3113 21.4337C24.3325 21.596 24.3677 21.6736 24.4806 21.8712C24.403 21.8994 24.3325 21.9558 24.3325 22.0546C24.3325 22.1957 24.4877 22.2521 24.5935 22.2521C24.65 22.3439 24.6993 22.365 24.7699 22.365C24.8475 22.365 24.9039 22.3368 24.9533 22.2521C25.0592 22.2521 25.2144 22.1957 25.2144 22.0546C25.2144 21.9558 25.1438 21.8994 25.0662 21.8712C25.165 21.6736 25.2144 21.589 25.2285 21.4337C25.2638 21.4055 25.2708 21.3844 25.2638 21.335C25.299 21.2856 25.3131 21.2503 25.3131 21.1868C25.3414 21.1515 25.3555 21.0951 25.3202 21.0457C25.4684 21.0951 25.5177 21.1092 25.6165 21.1092C25.9128 21.1092 25.9763 20.9822 26.0751 20.8411C25.807 20.8975 25.7365 20.6718 25.5107 20.6718C25.6024 20.6718 25.6941 20.4954 25.6941 20.2485C25.6941 19.9592 25.4401 19.6135 25.1438 19.6135C25.3625 19.7123 25.4401 19.931 25.4331 20.1215C25.419 20.3684 25.3202 20.4178 25.2285 20.4813C25.0944 20.4037 25.0239 20.4319 24.911 20.5589C24.8898 20.4813 24.8334 20.4601 24.7699 20.4601C24.7134 20.4601 24.657 20.4813 24.6358 20.5589C24.53 20.4319 24.4595 20.4037 24.3184 20.4813C24.2266 20.4178 24.1279 20.3684 24.1208 20.1215C24.1067 19.931 24.1914 19.7123 24.4101 19.6135C24.1138 19.6135 23.8598 19.9663 23.8598 20.2485C23.8598 20.4954 23.9515 20.6647 24.0432 20.6718C23.8174 20.6718 23.7469 20.8975 23.4858 20.8411C23.5564 20.9822 23.634 21.1092 23.9233 21.1092Z" fill="white"/>
<path fill-rule="evenodd" clip-rule="evenodd" d="M24.5725 20.319L24.763 20.2132L24.9746 20.319L24.9464 20.1003L25.1016 19.938L24.8829 19.9028L24.763 19.677L24.6642 19.9028L24.4243 19.938L24.6078 20.0933L24.5725 20.319Z" fill="white"/>
<path fill-rule="evenodd" clip-rule="evenodd" d="M23.6551 21.9488C23.4505 22.0123 23.4787 22.0193 23.4717 22.0617C23.4787 22.0969 23.521 22.104 23.5634 22.1322C23.5986 22.1675 23.6057 22.2028 23.6551 22.2028C23.7186 22.1887 23.7539 22.1887 23.7539 22.0123C23.7539 22.2028 23.7891 22.1816 23.8385 22.2028C23.895 22.2028 23.8879 22.1745 23.9444 22.1322C24.0008 22.104 24.0149 22.104 24.029 22.0617C24.022 22.0264 24.0572 21.9911 23.8526 21.9347C24.0431 21.9911 24.0572 21.9629 24.0855 21.9276C24.1137 21.8853 24.0502 21.8571 24.0361 21.8147C24.022 21.7724 24.029 21.7442 24.0008 21.716C23.9585 21.716 23.9373 21.6807 23.8103 21.8218C23.9443 21.6666 23.9091 21.6666 23.8809 21.6242C23.8315 21.596 23.7891 21.6242 23.7468 21.6172C23.6763 21.6172 23.6763 21.6172 23.6269 21.6383C23.6128 21.6666 23.5634 21.6807 23.6974 21.8218C23.5563 21.6736 23.5634 21.723 23.514 21.723C23.4717 21.7371 23.4858 21.7794 23.4717 21.8218C23.4575 21.8641 23.4223 21.8782 23.4364 21.9206C23.4646 21.977 23.4575 22.0052 23.6551 21.9488Z" fill="white"/>
<path fill-rule="evenodd" clip-rule="evenodd" d="M26.0893 21.7795C26.0822 21.5678 25.5107 21.5537 25.5107 21.9699C25.5178 22.365 26.0893 22.3368 26.0963 22.104C25.9411 22.2028 25.7647 22.0899 25.7647 21.9699C25.7718 21.8429 25.9411 21.723 26.0893 21.7795Z" fill="white"/>
<path d="M23.8031 13.9199C23.789 13.9905 23.6832 14.2656 23.6832 14.2656C23.7185 14.2798 23.7467 14.3221 23.7467 14.3785C23.7467 14.442 23.7044 14.4985 23.655 14.4985C23.6056 14.4985 23.5633 14.4491 23.5633 14.3785C23.5633 14.3715 23.5633 14.3715 23.5633 14.3644L23.5139 14.3503V14.3574C23.5139 14.4209 23.4574 14.4702 23.3869 14.4702C23.3163 14.4702 23.2599 14.4209 23.2599 14.3574C23.2599 14.2939 23.3163 14.2445 23.3869 14.2445C23.3869 14.2233 23.3657 13.9199 23.2599 13.8564C23.2599 13.8564 23.2176 13.8071 23.274 13.6589C23.274 13.6589 23.4998 13.6095 23.5915 13.6448C23.6832 13.6942 23.8243 13.8353 23.8031 13.9199ZM23.0553 13.8635C22.9424 13.927 22.9283 14.2304 22.9283 14.2515C22.9988 14.2515 23.0482 14.3009 23.0482 14.3644C23.0482 14.4279 22.9918 14.4773 22.9212 14.4773C22.8507 14.4773 22.7942 14.4279 22.7942 14.3644V14.3574L22.7449 14.3715V14.3856C22.7449 14.4491 22.7025 14.5055 22.6531 14.5055C22.6037 14.5055 22.5614 14.4561 22.5614 14.3856C22.5614 14.3362 22.5896 14.2868 22.6249 14.2727C22.6249 14.2727 22.5191 13.9975 22.505 13.927C22.4838 13.8423 22.6249 13.6942 22.7237 13.6589C22.8225 13.6236 23.0482 13.673 23.0482 13.673C23.1047 13.8212 23.0553 13.8635 23.0553 13.8635ZM24.1912 13.8212C24.1982 13.539 24.0995 13.4261 23.7255 13.4402C23.535 13.3132 23.2952 13.3908 23.281 13.3979C23.2599 13.4049 23.2528 13.3908 23.2599 13.3767C23.2599 13.3767 23.274 13.3414 23.274 13.3273C23.274 13.3061 23.2669 13.285 23.2528 13.2638V13.0663H23.408V12.8899H23.2528V12.7417H23.0764V12.8899H22.9212V13.0663H23.0764V13.2567C23.0623 13.2779 23.0482 13.2991 23.0482 13.3273C23.0482 13.3485 23.0623 13.3767 23.0623 13.3767C23.0694 13.3908 23.0553 13.4049 23.0412 13.3979C23.02 13.3908 22.7872 13.3132 22.5967 13.4402C22.2228 13.4331 22.124 13.546 22.1311 13.8282L22.0464 13.8V13.9764L22.1311 14.0046C22.1945 14.0681 22.2933 14.188 22.3286 14.3291C22.3427 14.3856 22.2792 14.5196 22.4133 14.569L22.4626 14.7736C22.3921 14.7807 22.4133 14.8653 22.4697 14.8512C22.5544 14.8371 22.6461 14.8301 22.7307 14.823C22.766 14.823 22.7942 14.816 22.8295 14.816C22.9142 14.816 22.9988 14.8089 23.0764 14.8089H23.2669C23.3516 14.8089 23.4292 14.8089 23.5139 14.816C23.5491 14.816 23.5774 14.823 23.6126 14.823C23.6973 14.8301 23.7961 14.8371 23.8737 14.8512C23.9301 14.8583 23.9442 14.7807 23.8807 14.7736L23.9231 14.569C24.0642 14.5196 23.9936 14.3785 24.0077 14.3291C24.043 14.188 24.1418 14.0681 24.2053 14.0046L24.2758 13.9834V13.8071L24.1912 13.8212Z" fill="white"/>
</svg>
