<svg width="45" height="38" viewBox="0 0 45 38" fill="none" xmlns="http://www.w3.org/2000/svg">
<path fill-rule="evenodd" clip-rule="evenodd" d="M7.897 11.3016L8.20333 10.0304L6.93799 9.35819L8.39853 9.23926L8.73889 7.96801L9.30849 9.16438L10.8021 9.03663L9.67188 9.91056L10.2745 11.1069L9.00117 10.4339L7.897 11.3016Z" fill="#FFCC00"/>
<path d="M7.11922 9.39519L8.26843 10.0048L7.99114 11.1598L8.9942 10.3722L10.1484 10.9809L9.60184 9.89647L10.6289 9.10271L9.27049 9.219L8.75495 8.13276L8.44562 9.28595L7.11922 9.39519ZM7.80394 11.4435L8.1383 10.055L6.75684 9.32207L8.35152 9.19169L8.72392 7.80327L9.34457 9.11064L10.9753 8.97056L9.74299 9.92378L10.4017 11.2338L9.00722 10.4973L7.80394 11.4435Z" fill="white"/>
<path fill-rule="evenodd" clip-rule="evenodd" d="M12.6016 6.48181L12.9069 5.20352L11.6416 4.53838L13.1011 4.41152L13.4425 3.14116L14.0111 4.33752L15.5057 4.21771L14.3755 5.08371L14.9701 6.27919L13.7048 5.60612L12.6016 6.48181Z" fill="#FFCC00"/>
<path d="M11.8223 4.5745L12.9725 5.17885L12.6952 6.33909L13.6993 5.54357L14.8445 6.15233L14.3059 5.06961L15.333 4.28378L13.9746 4.39126L13.458 3.3059L13.1487 4.45822L11.8223 4.5745ZM12.509 6.62365L12.8424 5.22819L11.4609 4.50314L13.0556 4.36395L13.427 2.97642L14.0487 4.28378L15.6794 4.15252L14.4461 5.0978L15.0968 6.40605L13.7133 5.66955L12.509 6.62365Z" fill="white"/>
<path fill-rule="evenodd" clip-rule="evenodd" d="M29.1245 26.0288L29.4649 24.7576L28.1655 24.0933L29.6601 23.9665L29.9664 22.6961L30.5701 23.8925L32.0276 23.7647L30.9244 24.6316L31.5271 25.8271L30.2297 25.162L29.1245 26.0288Z" fill="#FFCC00"/>
<path d="M28.3503 24.1295L29.5306 24.7329L29.2233 25.8826L30.2213 25.0994L31.4016 25.7047L30.854 24.6193L31.8571 23.8308L30.5327 23.9462L29.9851 22.8609L29.7078 24.0132L28.3503 24.1295ZM29.0261 26.1742L29.3985 24.7832L27.981 24.0581L29.6127 23.9189L29.946 22.5314L30.6047 23.8379L32.1994 23.6987L30.9941 24.6448L31.6518 25.9504L30.2363 25.2254L29.0261 26.1742Z" fill="white"/>
<path fill-rule="evenodd" clip-rule="evenodd" d="M33.6763 21.246L33.9827 19.9774L32.7153 19.3026L34.1769 19.1837L34.5082 17.9063L35.0858 19.1097L36.5794 18.9828L35.4412 19.8567L36.0449 21.0522L34.7795 20.38L33.6763 21.246Z" fill="#FFCC00"/>
<path d="M32.8965 19.3387L34.0468 19.9519L33.7695 21.1042L34.7725 20.3166L35.9167 20.9254L35.3712 19.8427L36.4052 19.0489L35.0478 19.1634L34.5253 18.071L34.2239 19.2313L32.8965 19.3387ZM33.5823 21.3879L33.9166 20.0012L32.5352 19.2665L34.1298 19.137L34.4922 17.7398L35.1229 19.0542L36.7526 18.9176L35.5113 19.8709L36.172 21.1791L34.7865 20.4435L33.5823 21.3879Z" fill="white"/>
<path fill-rule="evenodd" clip-rule="evenodd" d="M35.1707 14.9779L35.502 13.6996L34.2017 13.0345L35.7053 12.9068L36.0026 11.6373L36.6062 12.8327L38.0738 12.7129L36.9696 13.5798L37.5732 14.7762L36.2739 14.1031L35.1707 14.9779Z" fill="#FFCC00"/>
<path d="M34.387 13.0697L35.5682 13.6741L35.2679 14.8317L36.266 14.0406L37.4472 14.6511L36.8997 13.5666L37.9037 12.779L36.5703 12.8865L36.0227 11.8029L35.7534 12.9543L34.387 13.0697ZM35.0737 15.1224L35.4361 13.7243L34.0166 12.9984L35.6563 12.86L35.9827 11.4716L36.6434 12.779L38.2431 12.6477L37.0398 13.5921L37.6985 14.9004L36.281 14.1657L35.0737 15.1224Z" fill="white"/>
<path fill-rule="evenodd" clip-rule="evenodd" d="M32.4185 9.05953L32.7238 7.79005L31.4585 7.11611L32.9521 6.98925L33.2584 5.71888L33.862 6.91436L35.3226 6.79455L34.2184 7.66231L34.796 8.85779L33.5217 8.19266L32.4185 9.05953Z" fill="#FFCC00"/>
<path d="M31.6387 7.15223L32.7899 7.76451L32.5126 8.9177L33.5157 8.12923L34.6739 8.73534L34.1494 7.64822L35.1534 6.85975L33.826 6.96899L33.2774 5.88363L33.0011 7.03594L31.6387 7.15223ZM32.3254 9.2005L32.6598 7.81472L31.2783 7.07999L32.905 6.94168L33.2394 5.55503L33.8981 6.86063L35.4928 6.72936L34.2885 7.67553L34.9182 8.98201L33.5297 8.25521L32.3254 9.2005Z" fill="white"/>
<path fill-rule="evenodd" clip-rule="evenodd" d="M26.7815 5.18062L27.1108 3.90409L25.8135 3.23895L27.3161 3.11914L27.6124 1.84085L28.216 3.03633L29.6846 2.9174L28.5814 3.78339L29.15 4.9868L27.8847 4.31462L26.7815 5.18062Z" fill="#FFCC00"/>
<path d="M25.9988 3.27507L27.1771 3.87853L26.8788 5.03701L27.8778 4.25207L29.029 4.86346L28.5115 3.77017L29.5146 2.9817L28.1801 3.09094L27.6336 2.00735L27.3633 3.16671L25.9988 3.27507ZM26.6856 5.32509L27.0449 3.92875L25.6274 3.20283L27.2682 3.07156L27.5925 1.67434L28.2512 2.98258L29.8539 2.8522L28.6506 3.79749L29.2723 5.11102L27.8918 4.37717L26.6856 5.32509Z" fill="white"/>
<path fill-rule="evenodd" clip-rule="evenodd" d="M19.4451 3.99394L19.7514 2.7227L18.4771 2.05052L19.9466 1.93158L20.286 0.660339L20.8796 1.85582L22.3481 1.72984L21.245 2.59672L21.8146 3.79837L20.5482 3.12618L19.4451 3.99394Z" fill="#FFCC00"/>
<path d="M18.6593 2.08663L19.8165 2.69803L19.5392 3.8521L20.5423 3.06275L21.6925 3.67415L21.1759 2.58262L22.177 1.79503L20.8436 1.91044L20.303 0.820674L19.9937 1.97827L18.6593 2.08663ZM19.352 4.1349L19.6854 2.74824L18.2959 2.01351L19.8996 1.88401L20.269 0.5L20.9157 1.80208L22.5184 1.66288L21.3151 2.60993L21.9347 3.92258L20.5553 3.19049L19.352 4.1349Z" fill="white"/>
<path fill-rule="evenodd" clip-rule="evenodd" d="M12.746 19.0427C15.0465 19.1837 17.9676 18.2507 20.0057 17.4728C20.2169 17.375 20.4382 17.2852 20.5993 17.2332C20.276 16.7099 20.0057 16.2324 19.6824 15.71C19.7344 15.762 18.6553 13.8564 18.0526 12.9006C18.0016 12.7579 17.8905 12.564 17.7884 12.4213C17.8905 12.3773 17.9505 12.3773 18.0526 12.3324C18.0526 12.2804 18.1628 12.2354 18.2739 12.1905H18.3239L18.9776 11.898C21.5764 10.6136 23.4183 8.90272 24.4464 7.23592C24.9299 6.51793 25.2022 5.75589 25.4134 5.18854L25.3123 5.09075C25.041 5.71184 24.7167 6.27918 24.1751 6.90027C22.9859 8.37854 21.0328 9.94844 18.5452 11.0911L18.435 11.1369C18.435 11.1369 18.0526 11.3307 17.408 11.6152C17.2458 11.7121 17.0246 11.7562 16.8123 11.854C14.7832 12.5041 12.9743 13.0715 10.793 12.8927C9.2233 12.7059 8.19522 11.943 8.19522 11.943C7.76276 13.6098 7.65064 15.3285 7.98299 17.0843C7.98299 17.0843 9.1202 19.0868 12.746 19.0427Z" fill="white"/>
<path d="M12.7463 19.0322C12.9004 19.041 13.0626 19.0463 13.2258 19.0463C14.9676 19.0463 17.248 18.5133 20.0009 17.4632C20.2162 17.3645 20.4274 17.2781 20.5815 17.2271C20.4234 16.9698 20.2742 16.7196 20.1311 16.4765C19.9849 16.2307 19.8338 15.9761 19.6716 15.7144L19.6786 15.7109H19.6726C19.6586 15.6501 18.6155 13.8142 18.0419 12.905C17.9878 12.7526 17.8707 12.5561 17.7786 12.4275L17.7716 12.4178L17.7836 12.4117C17.8356 12.3896 17.8777 12.3782 17.9167 12.3667C17.9568 12.3561 17.9938 12.3447 18.0409 12.3253C18.0479 12.2733 18.141 12.2319 18.2691 12.1808L18.2741 12.1791H18.3202L18.9728 11.8892C21.3754 10.7008 23.3154 9.04633 24.4356 7.23065C24.8931 6.55053 25.1574 5.84311 25.3696 5.274L25.4016 5.19119L25.3176 5.11102C25.0082 5.81404 24.6689 6.35143 24.1844 6.90557C22.884 8.5248 20.8308 10.0533 18.5514 11.1008L18.4403 11.1466C18.4373 11.1483 18.0509 11.343 17.4132 11.6249C17.3231 11.6796 17.212 11.7174 17.0959 11.7571C17.0048 11.7897 16.9107 11.8214 16.8186 11.8637C15.0947 12.4161 13.469 12.9376 11.6071 12.9376C11.3368 12.9376 11.0615 12.9253 10.7912 12.9032C9.33865 12.7297 8.3376 12.0566 8.20245 11.9632C7.75298 13.7067 7.6829 15.4281 7.99523 17.0817C8.01225 17.1099 8.29855 17.5865 8.98929 18.056C9.64498 18.5018 10.8082 19.033 12.6271 19.033H12.6281C12.6682 19.033 12.7062 19.033 12.7463 19.0322ZM13.2258 19.0683C13.0616 19.0683 12.8994 19.063 12.7453 19.0533C12.7062 19.0542 12.6682 19.0542 12.6281 19.0542H12.6271C10.8002 19.0542 9.63196 18.5203 8.97327 18.0728C8.25951 17.5874 7.97521 17.094 7.97221 17.0887L7.97121 17.087C7.65788 15.4255 7.72795 13.6943 8.18343 11.9412L8.18844 11.9245L8.20345 11.935C8.21347 11.943 9.24656 12.698 10.7942 12.8821C11.0635 12.9041 11.3368 12.9156 11.6071 12.9156C13.465 12.9156 15.0887 12.3949 16.8086 11.8443C16.9007 11.8011 16.9948 11.7685 17.0868 11.7377C17.202 11.6981 17.3111 11.6593 17.4012 11.6064C18.0389 11.3245 18.4253 11.129 18.4293 11.1272L18.5404 11.0814C20.8158 10.0365 22.866 8.50982 24.1653 6.89411C24.6528 6.33734 24.9912 5.79642 25.3015 5.08724L25.3085 5.0705L25.4277 5.18591L25.3926 5.28105C25.1804 5.85016 24.9161 6.55934 24.4556 7.24122C23.3345 9.06043 21.3924 10.7167 18.9839 11.9077L18.3242 12.202H18.2771C18.182 12.239 18.0649 12.2857 18.0649 12.3324V12.3385L18.0579 12.3421C18.0068 12.3641 17.9648 12.3755 17.9247 12.387C17.8867 12.3976 17.8507 12.4072 17.8066 12.4257C17.8977 12.5552 18.0108 12.7482 18.0649 12.8971C18.4243 13.4679 18.9128 14.311 19.106 14.6458C19.4724 15.2827 19.6696 15.6378 19.6926 15.7047L19.6936 15.7038C19.8548 15.9664 20.0059 16.2201 20.1521 16.4668C20.2982 16.7126 20.4494 16.9672 20.6106 17.2279L20.6176 17.2394L20.6036 17.2429C20.4484 17.2931 20.2322 17.3803 20.0119 17.4825C17.254 18.5344 14.9706 19.0683 13.2258 19.0683Z" fill="#FFCC00"/>
<path fill-rule="evenodd" clip-rule="evenodd" d="M30.8323 9.46918C30.2867 10.6655 29.5319 11.95 28.2836 13.0944C26.714 14.7083 24.6077 16.2324 22.061 17.427C21.7627 17.5997 21.4073 17.7125 21.084 17.8983C20.8728 17.9961 20.6505 18.093 20.4884 18.1371C18.214 18.9678 15.9716 19.7519 13.4599 19.7519C9.13036 19.6541 8.37256 18.2736 8.37256 18.2736C8.42461 18.3688 8.58578 18.7053 8.58578 18.848C8.90913 19.6092 9.28953 20.3721 9.67193 21.1791C9.99427 21.6125 10.3176 22.083 10.699 22.5164C10.699 22.5164 12.9674 24.7056 18.3841 24.1832C20.133 24.0123 22.2302 23.385 23.7919 22.6142C24.0141 22.5693 24.1753 22.5243 24.3374 22.5243C23.4185 21.3297 22.5526 19.9995 21.5775 18.6613H21.6266C21.8468 18.6163 22.01 18.5185 22.2823 18.4287C22.7147 18.1908 23.1482 17.9961 23.5206 17.7565C25.5838 16.613 27.3076 15.1409 28.5559 13.6177C29.6931 12.1905 30.509 10.8074 30.8323 9.61278V9.46918Z" fill="#FFCC00"/>
<path d="M8.64466 18.8384C8.8799 19.3969 9.14518 19.9484 9.42548 20.5325C9.52459 20.7386 9.62469 20.9474 9.7258 21.1597C9.79387 21.2496 9.86595 21.35 9.94002 21.4513C10.1913 21.7958 10.4516 22.1526 10.7449 22.4856C10.7599 22.4997 12.5878 24.2123 16.7572 24.2123C17.2798 24.2123 17.8254 24.185 18.3779 24.1321C20.0587 23.9683 22.173 23.3551 23.7636 22.5702L23.7787 22.5649C23.8257 22.5552 23.8708 22.5455 23.9128 22.5358C24.0289 22.5111 24.132 22.4882 24.2311 22.4794C23.7156 21.8028 23.2221 21.0954 22.7015 20.3466C22.3241 19.8057 21.9347 19.2462 21.5283 18.6886L21.4702 18.6111H21.6204C21.7425 18.5855 21.8476 18.5423 21.9687 18.4921C22.0538 18.4578 22.1489 18.4181 22.2611 18.3811C22.4092 18.2983 22.5694 18.2173 22.7225 18.138C22.9948 17.9979 23.2521 17.8666 23.4863 17.7151C25.4534 16.6253 27.1893 15.1982 28.5087 13.5877C29.5718 12.254 30.3146 10.9994 30.6739 9.93435C30.0283 11.2356 29.2745 12.2584 28.3255 13.1296C26.6707 14.8317 24.5124 16.3337 22.0879 17.4728C21.9427 17.5574 21.7825 17.627 21.6134 17.701C21.4472 17.7733 21.276 17.8481 21.1158 17.9406C20.8956 18.0428 20.6734 18.1406 20.5062 18.1864C18.431 18.9432 16.0715 19.803 13.4597 19.803C10.3294 19.7325 9.05409 19.0022 8.57658 18.5846C8.61262 18.678 8.64165 18.7723 8.64466 18.8384ZM16.7572 24.3154C12.5328 24.3154 10.6748 22.5693 10.6568 22.5517C10.3565 22.2116 10.0962 21.853 9.84292 21.5068C9.76985 21.4055 9.69677 21.3051 9.62369 21.2073C9.51858 20.987 9.41847 20.7791 9.31937 20.5721C9.03707 19.9845 8.76979 19.4286 8.53254 18.8657L8.52853 18.848C8.52853 18.73 8.39139 18.4243 8.32031 18.2957L8.42542 18.2507C8.43243 18.2648 9.22827 19.6057 13.4607 19.7008C16.0495 19.7008 18.396 18.8454 20.4672 18.0904C20.6313 18.0455 20.8566 17.945 21.0578 17.8525C21.2189 17.76 21.3931 17.6834 21.5613 17.6094C21.7275 17.5372 21.8847 17.4684 22.0278 17.3847C24.4454 16.2501 26.5916 14.7559 28.2404 13.0609C29.2865 12.1015 30.0923 10.9545 30.7781 9.4507L30.8902 9.20579L30.8892 9.62425C30.5778 10.7695 29.788 12.1606 28.6028 13.6459C27.2754 15.2686 25.5285 16.7046 23.5514 17.7997C23.3152 17.9521 23.0559 18.0851 22.7806 18.2261C22.6274 18.3045 22.4693 18.3855 22.3121 18.4719C22.194 18.5124 22.1049 18.5485 22.0178 18.5846C21.9057 18.6313 21.7986 18.6745 21.6764 18.7036C22.0638 19.2383 22.4382 19.7739 22.7996 20.2937C23.3402 21.0681 23.8497 21.7993 24.3843 22.4962L24.4454 22.5754H24.3362C24.2171 22.5754 24.095 22.6019 23.9408 22.6353C23.8998 22.645 23.8577 22.6538 23.8127 22.6627C22.211 23.4511 20.0827 24.0678 18.391 24.2343C17.8334 24.2872 17.2848 24.3154 16.7572 24.3154Z" fill="white"/>
<path fill-rule="evenodd" clip-rule="evenodd" d="M30.993 18.6613C29.8038 20.0964 27.8507 21.5227 25.5833 22.7111C25.3631 22.8089 25.0908 22.9507 24.8195 23.0917C24.6593 23.1445 24.4972 23.1903 24.386 23.2353C20.8453 24.7136 16.2184 25.7513 12.4814 24.2132C16.2444 27.3353 22.8584 28.2771 27.5794 26.4253C27.5794 26.3795 25.9567 24.5197 25.3631 23.8106C25.4141 23.7586 25.5242 23.7586 25.5833 23.7119C26.0678 23.5251 26.4422 23.2855 26.7716 23.1445C28.7767 21.9482 30.2372 20.477 31.2052 19.1396C31.6968 18.4287 32.0211 17.7565 32.1813 17.1363L32.0702 17.0914C31.909 17.5706 31.4765 18.1371 30.993 18.6613Z" fill="white"/>
<path d="M12.7838 24.3858C15.1543 26.2279 18.652 27.3186 22.2198 27.3186C24.1188 27.3186 25.9417 27.0014 27.4964 26.4015C27.3622 26.2297 26.8177 25.5945 26.3301 25.0281C25.9467 24.5814 25.5493 24.1189 25.3171 23.8405L25.289 23.8079L25.3191 23.7771C25.3571 23.7383 25.4122 23.7224 25.4602 23.7075C25.4943 23.6978 25.5263 23.6881 25.5453 23.6749L25.5603 23.6652C25.8436 23.5559 26.0929 23.4264 26.3121 23.3128C26.4653 23.2326 26.6094 23.1577 26.7466 23.0987C28.9619 21.7764 30.3674 20.2012 31.1562 19.1123C31.6267 18.4322 31.9491 17.7776 32.1143 17.1654L32.1062 17.1618C31.9501 17.5812 31.5907 18.0957 31.0371 18.6939C29.8869 20.0823 27.9589 21.5253 25.6134 22.7551C25.3972 22.8503 25.1309 22.9895 24.8736 23.1225L24.8486 23.1357C24.7825 23.1586 24.7244 23.1762 24.6694 23.1939C24.5723 23.2247 24.4802 23.2529 24.4111 23.2811C22.5071 24.0766 19.612 25.0245 16.6359 25.0245C15.2304 25.0245 13.936 24.8096 12.7838 24.3858ZM22.2198 27.4208C18.4898 27.4208 14.834 26.2359 12.4425 24.2502L12.1802 24.0326L12.5065 24.1673C13.7238 24.6677 15.1133 24.9223 16.6359 24.9223C19.59 24.9223 22.4671 23.9797 24.3621 23.1886C24.4361 23.1586 24.5302 23.1296 24.6303 23.097C24.6844 23.0811 24.7415 23.0626 24.7995 23.0441L24.8145 23.0344C25.0738 22.8996 25.3421 22.7604 25.5573 22.6653C27.8878 21.4451 29.8018 20.0109 30.945 18.6313C31.5166 18.0155 31.875 17.4931 32.0141 17.0764L32.0342 17.02L32.2484 17.1072L32.2384 17.1469C32.0732 17.782 31.7429 18.4613 31.2543 19.1661C30.4595 20.2637 29.043 21.8521 26.8046 23.1877C26.6645 23.2476 26.5223 23.3216 26.3712 23.4C26.1509 23.5145 25.9007 23.6449 25.6144 23.7559C25.5783 23.7806 25.5353 23.7929 25.4973 23.8044C25.4782 23.8105 25.4602 23.8158 25.4442 23.822C25.6815 24.1021 26.0578 24.5418 26.4222 24.9664C27.5885 26.3248 27.6375 26.39 27.6375 26.4253V26.4579L27.6035 26.4711C26.0208 27.0931 24.1588 27.4208 22.2198 27.4208Z" fill="white"/>
<path d="M0.5 31.0795H1.0686V33.5603H0.5V31.0795Z" fill="white"/>
<path d="M3.46497 33.5594H2.9244V32.6423C2.9244 32.4494 2.91239 32.3234 2.88936 32.2653C2.86634 32.2089 2.8293 32.1648 2.77624 32.1331C2.72419 32.1014 2.66212 32.0855 2.59005 32.0855C2.49595 32.0855 2.41186 32.1085 2.33778 32.1534C2.2647 32.1983 2.21165 32.2591 2.18462 32.3331C2.15759 32.408 2.14357 32.5445 2.14357 32.7454V33.5594H1.604V31.7622H2.10553V32.0274C2.28372 31.8239 2.50696 31.7217 2.77825 31.7217C2.89737 31.7217 3.00649 31.7411 3.10559 31.7781C3.2037 31.816 3.27777 31.8644 3.32883 31.9226C3.37988 31.9816 3.41492 32.0485 3.43394 32.1234C3.45596 32.1974 3.46497 32.304 3.46497 32.4423V33.5594Z" fill="white"/>
<path d="M3.82275 33.0467L4.36533 32.9744C4.38835 33.0669 4.4354 33.1374 4.50648 33.185C4.57655 33.2326 4.67365 33.2564 4.80179 33.2564C4.94194 33.2564 5.04705 33.2352 5.11812 33.1894C5.16517 33.1577 5.1882 33.1154 5.1882 33.0625C5.1882 33.0264 5.17618 32.9965 5.14916 32.9727C5.12213 32.9498 5.06206 32.9286 4.96997 32.9101C4.5325 32.8247 4.25621 32.748 4.14009 32.6784C3.97792 32.5807 3.89783 32.4459 3.89783 32.2732C3.89783 32.1181 3.96791 31.9869 4.10806 31.8812C4.2472 31.7754 4.46343 31.7217 4.75674 31.7217C5.03704 31.7217 5.24426 31.7622 5.3804 31.8415C5.51654 31.9217 5.60964 32.0406 5.6617 32.1974L5.15116 32.2802C5.13014 32.2106 5.08809 32.1578 5.02803 32.1199C4.96696 32.082 4.87987 32.0635 4.76775 32.0635C4.6246 32.0635 4.52349 32.0803 4.46043 32.1164C4.42039 32.141 4.39936 32.1736 4.39936 32.2124C4.39936 32.2468 4.41838 32.275 4.45442 32.2987C4.50247 32.3296 4.67065 32.3745 4.95896 32.4335C5.24626 32.4899 5.44647 32.5613 5.56059 32.6441C5.67471 32.7295 5.73177 32.8467 5.73177 32.9982C5.73177 33.163 5.65269 33.3039 5.49552 33.4229C5.33936 33.5418 5.10811 33.5999 4.80179 33.5999C4.52349 33.5999 4.30426 33.5506 4.14109 33.4511C3.97792 33.3533 3.87281 33.2167 3.82275 33.0467Z" fill="white"/>
<path d="M7.14018 31.7631V32.1419H6.77079V32.8661C6.77079 33.0123 6.7738 33.0987 6.7808 33.1216C6.78881 33.1471 6.80383 33.1665 6.82885 33.1815C6.85388 33.1982 6.88491 33.2061 6.92095 33.2061C6.971 33.2061 7.04308 33.1912 7.13818 33.1612L7.18523 33.5303C7.0581 33.5761 6.91695 33.5999 6.75678 33.5999C6.65967 33.5999 6.57258 33.5858 6.4935 33.5568C6.41542 33.5294 6.35936 33.4907 6.32232 33.4458C6.28528 33.3991 6.26025 33.3383 6.24524 33.2599C6.23422 33.2052 6.22922 33.0925 6.22922 32.9251V32.1419H5.98096V31.7631H6.22922V31.4054L6.77079 31.1279V31.7631H7.14018Z" fill="white"/>
<path d="M8.03178 33.5594H7.49121V31.7622H7.99374V32.0177C8.07983 31.897 8.15691 31.8177 8.22499 31.779C8.29406 31.7411 8.37214 31.7217 8.45923 31.7217C8.58236 31.7217 8.69949 31.7525 8.81461 31.8124L8.64743 32.2256C8.55634 32.1736 8.47225 32.1481 8.39417 32.1481C8.31809 32.1481 8.25302 32.1666 8.20096 32.2036C8.14791 32.2397 8.10786 32.3067 8.07783 32.4027C8.0468 32.4978 8.03178 32.6987 8.03178 33.0044V33.5594Z" fill="white"/>
<path d="M10.3916 33.5594V33.2907C10.3185 33.3867 10.2194 33.4616 10.0993 33.518C9.97713 33.5735 9.84899 33.5999 9.71485 33.5999C9.5767 33.5999 9.45458 33.5744 9.34646 33.5215C9.23634 33.4678 9.15826 33.3938 9.10921 33.2977C9.05916 33.2017 9.03613 33.0696 9.03613 32.8995V31.7622H9.5757V32.5886C9.5757 32.8405 9.58571 32.9965 9.60674 33.0537C9.62576 33.1092 9.6628 33.1541 9.71485 33.1894C9.76791 33.2211 9.83498 33.2378 9.91506 33.2378C10.0072 33.2378 10.0892 33.2167 10.1623 33.1726C10.2364 33.1268 10.2855 33.0713 10.3125 33.0053C10.3405 32.9392 10.3535 32.7789 10.3535 32.5207V31.7622H10.8941V33.5594H10.3916Z" fill="white"/>
<path d="M11.4126 31.7631H11.9111V32.0071C12.0883 31.8168 12.3015 31.7208 12.5478 31.7208C12.6779 31.7208 12.7921 31.7455 12.8882 31.793C12.9843 31.8406 13.0633 31.9111 13.1254 32.0071C13.2135 31.9111 13.3106 31.8406 13.4147 31.793C13.5188 31.7455 13.6299 31.7208 13.7471 31.7208C13.8972 31.7208 14.0244 31.749 14.1275 31.8019C14.2326 31.8556 14.3097 31.934 14.3597 32.038C14.3988 32.1146 14.4168 32.2388 14.4168 32.4115V33.5603H13.8762V32.5322C13.8762 32.3542 13.8582 32.2388 13.8201 32.1868C13.7711 32.1199 13.694 32.0864 13.5889 32.0864C13.5138 32.0864 13.4427 32.1058 13.3757 32.1463C13.3096 32.1868 13.2626 32.2459 13.2325 32.326C13.2035 32.4044 13.1875 32.5278 13.1875 32.6969V33.5603H12.6479V32.5754C12.6479 32.4 12.6379 32.2873 12.6179 32.2362C12.5989 32.186 12.5698 32.1472 12.5288 32.1234C12.4887 32.0979 12.4337 32.0864 12.3646 32.0864C12.2815 32.0864 12.2064 32.1049 12.1404 32.1454C12.0733 32.1842 12.0252 32.2423 11.9962 32.3155C11.9672 32.3912 11.9532 32.5137 11.9532 32.6872V33.5603H11.4126V31.7631Z" fill="white"/>
<path d="M16.1683 32.5066C16.1633 32.3692 16.1243 32.2644 16.0472 32.193C15.9701 32.1217 15.877 32.0864 15.7659 32.0864C15.6478 32.0864 15.5507 32.1234 15.4736 32.1992C15.3965 32.2741 15.3595 32.3771 15.3605 32.5066H16.1683ZM16.1373 32.9885L16.6749 33.0661C16.6068 33.2405 16.4977 33.3726 16.3485 33.4634C16.1984 33.555 16.0112 33.6008 15.7879 33.6008C15.4325 33.6008 15.1683 33.4986 14.9991 33.2942C14.8639 33.1313 14.7969 32.9242 14.7969 32.6758C14.7969 32.3763 14.885 32.1428 15.0632 31.9754C15.2383 31.8063 15.4636 31.7217 15.7339 31.7217C16.0372 31.7217 16.2774 31.8107 16.4536 31.9869C16.6288 32.164 16.7129 32.4344 16.7049 32.7983H15.3515C15.3545 32.9392 15.3985 33.0484 15.4816 33.1277C15.5647 33.2053 15.6678 33.244 15.7919 33.244C15.878 33.244 15.9481 33.2255 16.0062 33.1841C16.0642 33.1427 16.1083 33.0784 16.1373 32.9885Z" fill="white"/>
<path d="M19.0026 33.5594H18.463V32.6423C18.463 32.4494 18.451 32.3234 18.428 32.2653C18.4049 32.2089 18.3679 32.1648 18.3158 32.1331C18.2628 32.1014 18.2007 32.0855 18.1296 32.0855C18.0335 32.0855 17.9495 32.1085 17.8764 32.1534C17.8023 32.1983 17.7512 32.2591 17.7232 32.3331C17.6962 32.408 17.6822 32.5445 17.6822 32.7454V33.5594H17.1416V31.7622H17.6431V32.0274C17.8223 31.8239 18.0466 31.7217 18.3168 31.7217C18.436 31.7217 18.5451 31.7411 18.6432 31.7781C18.7413 31.816 18.8164 31.8644 18.8684 31.9226C18.9175 31.9816 18.9535 32.0485 18.9735 32.1234C18.9936 32.1974 19.0026 32.304 19.0026 32.4423V33.5594Z" fill="white"/>
<path d="M20.4874 31.7631V32.1419H20.119V32.8661C20.119 33.0123 20.122 33.0987 20.129 33.1216C20.137 33.1471 20.153 33.1665 20.177 33.1815C20.203 33.1982 20.2331 33.2061 20.2691 33.2061C20.3182 33.2061 20.3912 33.1912 20.4863 33.1612L20.5324 33.5303C20.4063 33.5761 20.2641 33.5999 20.1049 33.5999C20.0078 33.5999 19.9208 33.5858 19.8417 33.5568C19.7636 33.5294 19.7065 33.4907 19.6705 33.4458C19.6334 33.3991 19.6084 33.3383 19.5934 33.2599C19.5824 33.2052 19.5764 33.0925 19.5764 32.9251V32.1419H19.3281V31.7631H19.5764V31.4054L20.119 31.1279V31.7631H20.4874Z" fill="white"/>
<path d="M22.0756 32.5066C22.0715 32.3692 22.0315 32.2644 21.9544 32.193C21.8783 32.1217 21.7842 32.0864 21.6741 32.0864C21.556 32.0864 21.4589 32.1234 21.3818 32.1992C21.3047 32.2741 21.2677 32.3771 21.2687 32.5066H22.0756ZM22.0445 32.9885L22.5831 33.0661C22.514 33.2405 22.4049 33.3726 22.2557 33.4634C22.1066 33.555 21.9194 33.6008 21.6951 33.6008C21.3388 33.6008 21.0765 33.4986 20.9073 33.2942C20.7722 33.1313 20.7041 32.9242 20.7041 32.6758C20.7041 32.3763 20.7932 32.1428 20.9704 31.9754C21.1466 31.8063 21.3718 31.7217 21.6421 31.7217C21.9444 31.7217 22.1847 31.8107 22.3599 31.9869C22.536 32.164 22.6201 32.4344 22.6121 32.7983H21.2587C21.2617 32.9392 21.3047 33.0484 21.3888 33.1277C21.4729 33.2053 21.577 33.244 21.7012 33.244C21.7862 33.244 21.8563 33.2255 21.9134 33.1841C21.9704 33.1427 22.0155 33.0784 22.0445 32.9885Z" fill="white"/>
<path d="M24.0073 32.7533L24.5619 32.7049C24.5939 32.8696 24.662 32.9885 24.7651 33.0652C24.8662 33.1427 25.0034 33.1806 25.1766 33.1806C25.3598 33.1806 25.4979 33.1471 25.591 33.0784C25.6831 33.0097 25.7301 32.9295 25.7301 32.8388C25.7301 32.7806 25.7111 32.7313 25.6711 32.689C25.633 32.6467 25.565 32.6115 25.4659 32.5815C25.4008 32.5613 25.2476 32.5252 25.0104 32.4732C24.7061 32.408 24.4918 32.3243 24.3687 32.2274C24.1955 32.0908 24.1094 31.9252 24.1094 31.7279C24.1094 31.6019 24.1505 31.4847 24.2316 31.3746C24.3136 31.2645 24.4298 31.1808 24.5839 31.1235C24.7371 31.0663 24.9213 31.0363 25.1375 31.0363C25.4919 31.0363 25.7582 31.105 25.9374 31.2416C26.1156 31.3781 26.2097 31.5587 26.2187 31.7887L25.6491 31.8107C25.625 31.6829 25.573 31.5904 25.4919 31.5349C25.4128 31.4794 25.2927 31.4512 25.1325 31.4512C24.9673 31.4512 24.8372 31.4812 24.7441 31.5402C24.684 31.579 24.653 31.6301 24.653 31.6944C24.653 31.7534 24.681 31.8036 24.7371 31.845C24.8102 31.8979 24.9834 31.9552 25.2617 32.0107C25.5379 32.0688 25.7432 32.1287 25.8763 32.1904C26.0074 32.2512 26.1115 32.3357 26.1886 32.4415C26.2617 32.5489 26.2987 32.6802 26.2987 32.8379C26.2987 32.9797 26.2547 33.1128 26.1646 33.2361C26.0755 33.3603 25.9474 33.4528 25.7842 33.5127C25.62 33.5744 25.4158 33.6043 25.1696 33.6043C24.8142 33.6043 24.5409 33.5312 24.3497 33.3867C24.1575 33.2414 24.0444 33.03 24.0073 32.7533Z" fill="white"/>
<path d="M27.7105 31.7631V32.1419H27.3411V32.8661C27.3411 33.0123 27.3441 33.0987 27.3511 33.1216C27.3601 33.1471 27.3751 33.1665 27.3992 33.1815C27.4242 33.1982 27.4552 33.2061 27.4903 33.2061C27.5413 33.2061 27.6134 33.1912 27.7085 33.1612L27.7545 33.5303C27.6284 33.5761 27.4863 33.5999 27.3271 33.5999C27.231 33.5999 27.1419 33.5858 27.0638 33.5568C26.9867 33.5294 26.9297 33.4907 26.8926 33.4458C26.8546 33.3991 26.8306 33.3383 26.8166 33.2599C26.8055 33.2052 26.7985 33.0925 26.7985 32.9251V32.1419H26.5513V31.7631H26.7985V31.4054L27.3411 31.1279V31.7631H27.7105Z" fill="white"/>
<path d="M28.6041 33.5594H28.0625V31.7622H28.566V32.0177C28.6511 31.897 28.7282 31.8177 28.7963 31.779C28.8653 31.7411 28.9424 31.7217 29.0295 31.7217C29.1527 31.7217 29.2708 31.7525 29.3859 31.8124L29.2187 32.2256C29.1276 32.1736 29.0435 32.1481 28.9645 32.1481C28.8894 32.1481 28.8243 32.1666 28.7733 32.2036C28.7192 32.2397 28.6792 32.3067 28.6501 32.4027C28.6181 32.4978 28.6041 32.6987 28.6041 33.0044V33.5594Z" fill="white"/>
<path d="M30.9624 33.5594V33.2907C30.8883 33.3867 30.7912 33.4616 30.6701 33.518C30.5479 33.5735 30.4198 33.5999 30.2857 33.5999C30.1485 33.5999 30.0254 33.5744 29.9163 33.5215C29.8071 33.4678 29.7291 33.3938 29.679 33.2977C29.632 33.2017 29.6069 33.0696 29.6069 32.8995V31.7622H30.1465V32.5886C30.1465 32.8405 30.1575 32.9965 30.1765 33.0537C30.1966 33.1092 30.2326 33.1541 30.2857 33.1894C30.3377 33.2211 30.4058 33.2378 30.4849 33.2378C30.579 33.2378 30.66 33.2167 30.7341 33.1726C30.8072 33.1268 30.8563 33.0713 30.8843 33.0053C30.9113 32.9392 30.9243 32.7789 30.9243 32.5207V31.7622H31.4649V33.5594H30.9624Z" fill="white"/>
<path d="M33.8063 32.2943L33.2727 32.3789C33.2547 32.2855 33.2137 32.2142 33.1496 32.1675C33.0865 32.1199 33.0034 32.0961 32.9033 32.0961C32.7672 32.0961 32.6621 32.1366 32.581 32.2186C32.5009 32.3014 32.4609 32.4379 32.4609 32.6291C32.4609 32.8432 32.5019 32.9929 32.583 33.081C32.6641 33.1682 32.7732 33.2123 32.9103 33.2123C33.0134 33.2123 33.0965 33.1876 33.1616 33.1357C33.2287 33.0846 33.2747 32.9965 33.3007 32.8705L33.8323 32.9506C33.7773 33.1638 33.6701 33.3268 33.514 33.4369C33.3578 33.5462 33.1486 33.5999 32.8853 33.5999C32.587 33.5999 32.3487 33.518 32.1716 33.3515C31.9944 33.1868 31.9053 32.9568 31.9053 32.6635C31.9053 32.3657 31.9944 32.1349 32.1716 31.9701C32.3497 31.8045 32.591 31.7226 32.8953 31.7226C33.1436 31.7226 33.3418 31.7693 33.4879 31.8635C33.6351 31.9578 33.7412 32.1014 33.8063 32.2943Z" fill="white"/>
<path d="M35.1504 31.7631V32.1419H34.781V32.8661C34.781 33.0123 34.7851 33.0987 34.7921 33.1216C34.8001 33.1471 34.8151 33.1665 34.8401 33.1815C34.8651 33.1982 34.8962 33.2061 34.9312 33.2061C34.9823 33.2061 35.0543 33.1912 35.1484 33.1612L35.1955 33.5303C35.0694 33.5761 34.9272 33.5999 34.767 33.5999C34.6709 33.5999 34.5828 33.5858 34.5038 33.5568C34.4257 33.5294 34.3696 33.4907 34.3326 33.4458C34.2955 33.3991 34.2705 33.3383 34.2565 33.2599C34.2455 33.2052 34.2385 33.0925 34.2385 32.9251V32.1419H33.9912V31.7631H34.2385V31.4054L34.781 31.1279V31.7631H35.1504Z" fill="white"/>
<path d="M36.8706 33.5594V33.2907C36.7955 33.3867 36.6984 33.4616 36.5773 33.518C36.4562 33.5735 36.327 33.5999 36.1929 33.5999C36.0558 33.5999 35.9326 33.5744 35.8245 33.5215C35.7154 33.4678 35.6363 33.3938 35.5873 33.2977C35.5392 33.2017 35.5132 33.0696 35.5132 32.8995V31.7622H36.0548V32.5886C36.0548 32.8405 36.0658 32.9965 36.0848 33.0537C36.1048 33.1092 36.1398 33.1541 36.1929 33.1894C36.246 33.2211 36.312 33.2378 36.3931 33.2378C36.4852 33.2378 36.5683 33.2167 36.6414 33.1726C36.7145 33.1268 36.7635 33.0713 36.7915 33.0053C36.8176 32.9392 36.8316 32.7789 36.8316 32.5207V31.7622H37.3721V33.5594H36.8706Z" fill="white"/>
<path d="M38.4493 33.5594H37.9087V31.7622H38.4112V32.0177C38.4973 31.897 38.5734 31.8177 38.6415 31.779C38.7115 31.7411 38.7876 31.7217 38.8757 31.7217C38.9988 31.7217 39.117 31.7525 39.2321 31.8124L39.0639 32.2256C38.9738 32.1736 38.8887 32.1481 38.8116 32.1481C38.7346 32.1481 38.6705 32.1666 38.6184 32.2036C38.5654 32.2397 38.5243 32.3067 38.4953 32.4027C38.4643 32.4978 38.4493 32.6987 38.4493 33.0044V33.5594Z" fill="white"/>
<path d="M40.5906 32.6961C40.5226 32.7163 40.4124 32.741 40.2623 32.7692C40.1131 32.7974 40.014 32.8247 39.968 32.8529C39.8989 32.8969 39.8619 32.9515 39.8619 33.0194C39.8619 33.0872 39.8899 33.1436 39.9459 33.192C40.004 33.2405 40.0751 33.2652 40.1622 33.2652C40.2603 33.2652 40.3534 33.237 40.4415 33.1806C40.5075 33.1383 40.5496 33.0854 40.5696 33.0229C40.5846 32.9824 40.5906 32.9057 40.5906 32.7921V32.6961ZM39.8689 32.3111L39.3773 32.2327C39.4324 32.0591 39.5275 31.9305 39.6616 31.8477C39.7978 31.764 39.997 31.7217 40.2623 31.7217C40.5035 31.7217 40.6827 31.7464 40.7999 31.7975C40.918 31.8477 41.0021 31.9111 41.0491 31.9886C41.0972 32.0662 41.1212 32.2071 41.1212 32.4141L41.1172 32.97C41.1172 33.1277 41.1232 33.244 41.1422 33.3189C41.1592 33.3938 41.1933 33.4731 41.2393 33.5594H40.7038C40.6897 33.5286 40.6727 33.481 40.6527 33.4185C40.6427 33.3911 40.6377 33.3726 40.6347 33.3638C40.5416 33.4422 40.4425 33.5013 40.3374 33.5418C40.2333 33.5806 40.1201 33.5999 40.001 33.5999C39.7898 33.5999 39.6246 33.5488 39.5045 33.4511C39.3834 33.3497 39.3213 33.2229 39.3213 33.0696C39.3213 32.9674 39.3493 32.8775 39.4044 32.7974C39.4594 32.7172 39.5375 32.6564 39.6366 32.6159C39.7357 32.5718 39.8789 32.5357 40.0661 32.504C40.3193 32.4626 40.4945 32.423 40.5906 32.3868V32.3393C40.5906 32.2485 40.5656 32.1833 40.5135 32.1446C40.4625 32.1049 40.3664 32.0855 40.2242 32.0855C40.1271 32.0855 40.0521 32.1032 39.999 32.1358C39.9449 32.1684 39.9019 32.2265 39.8689 32.3111Z" fill="white"/>
<path d="M41.6548 31.0795H42.1954V33.5603H41.6548V31.0795Z" fill="white"/>
<path d="M43.9622 32.5066C43.9582 32.3692 43.9182 32.2644 43.8421 32.193C43.766 32.1217 43.6709 32.0864 43.5608 32.0864C43.4427 32.0864 43.3446 32.1234 43.2685 32.1992C43.1914 32.2741 43.1544 32.3771 43.1554 32.5066H43.9622ZM43.9312 32.9885L44.4698 33.0661C44.4017 33.2405 44.2916 33.3726 44.1414 33.4634C43.9933 33.555 43.8071 33.6008 43.5808 33.6008C43.2265 33.6008 42.9642 33.4986 42.793 33.2942C42.6599 33.1313 42.5918 32.9242 42.5918 32.6758C42.5918 32.3763 42.6789 32.1428 42.8571 31.9754C43.0333 31.8063 43.2575 31.7217 43.5278 31.7217C43.8321 31.7217 44.0714 31.8107 44.2475 31.9869C44.4227 32.164 44.5068 32.4344 44.4998 32.7983H43.1454C43.1484 32.9392 43.1924 33.0484 43.2755 33.1277C43.3586 33.2053 43.4637 33.244 43.5879 33.244C43.6719 33.244 43.742 33.2255 43.8011 33.1841C43.8581 33.1427 43.9012 33.0784 43.9312 32.9885Z" fill="white"/>
<path d="M15.5696 37.0119V37.4577H13.6616C13.6826 37.2886 13.7447 37.1291 13.8478 36.9785C13.9509 36.8287 14.1551 36.6287 14.4595 36.3803C14.7057 36.1785 14.8559 36.0429 14.9119 35.9706C14.986 35.8711 15.0231 35.7742 15.0231 35.6764C15.0231 35.5707 14.99 35.4887 14.926 35.4306C14.8609 35.3724 14.7698 35.346 14.6557 35.346C14.5416 35.346 14.4505 35.3751 14.3844 35.4359C14.3173 35.4949 14.2783 35.5944 14.2683 35.7354L13.7257 35.6878C13.7587 35.4244 13.8588 35.2341 14.029 35.1205C14.2002 35.006 14.4134 34.9478 14.6697 34.9478C14.949 34.9478 15.1692 35.0139 15.3294 35.1469C15.4896 35.2808 15.5696 35.4456 15.5696 35.642C15.5696 35.7565 15.5466 35.8631 15.5016 35.9653C15.4545 36.0667 15.3834 36.1724 15.2823 36.2843C15.2173 36.3583 15.0981 36.4649 14.926 36.6032C14.7548 36.7424 14.6467 36.8331 14.5996 36.8798C14.5536 36.9247 14.5165 36.9688 14.4885 37.0119H15.5696Z" fill="white"/>
<path d="M16.7589 35.3451C16.6928 35.3451 16.6338 35.3636 16.5827 35.3998C16.5306 35.4376 16.4906 35.5037 16.4626 35.5989C16.4255 35.7222 16.4055 35.9319 16.4055 36.2243C16.4055 36.5186 16.4235 36.7195 16.4566 36.8287C16.4906 36.9379 16.5326 37.0119 16.5837 37.0489C16.6348 37.0842 16.6928 37.1027 16.7589 37.1027C16.825 37.1027 16.884 37.0842 16.9351 37.0481C16.9871 37.0093 17.0272 36.9441 17.0552 36.849C17.0922 36.7265 17.1113 36.5186 17.1113 36.2243C17.1113 35.9319 17.0942 35.7301 17.0612 35.62C17.0272 35.5099 16.9841 35.4376 16.9341 35.3998C16.884 35.3636 16.825 35.3451 16.7589 35.3451ZM16.7589 34.9478C17.0342 34.9478 17.2484 35.0342 17.4036 35.2068C17.5888 35.4121 17.6809 35.7513 17.6809 36.2243C17.6809 36.6983 17.5878 37.0375 17.4016 37.2445C17.2484 37.4145 17.0342 37.5 16.7589 37.5C16.4836 37.5 16.2604 37.4075 16.0892 37.219C15.921 37.0313 15.8369 36.6992 15.8369 36.2199C15.8369 35.7486 15.929 35.4103 16.1162 35.2033C16.2694 35.0324 16.4836 34.9478 16.7589 34.9478Z" fill="white"/>
<path d="M19.0945 37.4568H18.5509V35.6517C18.3517 35.8156 18.1175 35.9371 17.8472 36.0156V35.5795C17.9893 35.5389 18.1445 35.4623 18.3107 35.3478C18.4758 35.2333 18.591 35.1002 18.652 34.9478H19.0945V37.4568Z" fill="white"/>
<path d="M20.567 36.5336V35.679L19.9143 36.5336H20.567ZM20.567 37.4577V36.9547H19.4048V36.5344L20.6361 34.9478H21.0936V36.5336H21.4469V36.9547H21.0936V37.4577H20.567Z" fill="white"/>
<path d="M21.8677 36.3116H22.9358V36.7908H21.8677V36.3116Z" fill="white"/>
<path d="M25.012 37.0119V37.4577H23.105C23.125 37.2886 23.1861 37.1291 23.2892 36.9785C23.3933 36.8287 23.5965 36.6287 23.9018 36.3803C24.1471 36.1785 24.2992 36.0429 24.3533 35.9706C24.4284 35.8711 24.4664 35.7742 24.4664 35.6764C24.4664 35.5707 24.4334 35.4887 24.3683 35.4306C24.3032 35.3724 24.2132 35.346 24.098 35.346C23.9839 35.346 23.8938 35.3751 23.8267 35.4359C23.7587 35.4949 23.7206 35.5944 23.7096 35.7354L23.168 35.6878C23.2011 35.4244 23.3012 35.2341 23.4714 35.1205C23.6435 35.006 23.8548 34.9478 24.111 34.9478C24.3923 34.9478 24.6116 35.0139 24.7717 35.1469C24.9319 35.2808 25.012 35.4456 25.012 35.642C25.012 35.7565 24.99 35.8631 24.9429 35.9653C24.8969 36.0667 24.8248 36.1724 24.7257 36.2843C24.6596 36.3583 24.5405 36.4649 24.3703 36.6032C24.1971 36.7424 24.089 36.8331 24.043 36.8798C23.9969 36.9247 23.9599 36.9688 23.9309 37.0119H25.012Z" fill="white"/>
<path d="M26.2013 35.3451C26.1352 35.3451 26.0771 35.3636 26.0251 35.3998C25.974 35.4376 25.934 35.5037 25.906 35.5989C25.8679 35.7222 25.8489 35.9319 25.8489 36.2243C25.8489 36.5186 25.8649 36.7195 25.899 36.8287C25.933 36.9379 25.975 37.0119 26.0261 37.0489C26.0771 37.0842 26.1352 37.1027 26.2013 37.1027C26.2663 37.1027 26.3264 37.0842 26.3785 37.0481C26.4285 37.0093 26.4706 36.9441 26.4986 36.849C26.5356 36.7265 26.5536 36.5186 26.5536 36.2243C26.5536 35.9319 26.5366 35.7301 26.5036 35.62C26.4706 35.5099 26.4265 35.4376 26.3765 35.3998C26.3254 35.3636 26.2663 35.3451 26.2013 35.3451ZM26.2013 34.9478C26.4766 34.9478 26.6918 35.0342 26.847 35.2068C27.0311 35.4121 27.1242 35.7513 27.1242 36.2243C27.1242 36.6983 27.0311 37.0375 26.845 37.2445C26.6908 37.4145 26.4766 37.5 26.2013 37.5C25.925 37.5 25.7017 37.4075 25.5336 37.219C25.3634 37.0313 25.2793 36.6992 25.2793 36.2199C25.2793 35.7486 25.3734 35.4103 25.5586 35.2033C25.7118 35.0324 25.926 34.9478 26.2013 34.9478Z" fill="white"/>
<path d="M29.2274 37.0119V37.4577H27.3184C27.3384 37.2886 27.4014 37.1291 27.5046 36.9785C27.6077 36.8287 27.8119 36.6287 28.1162 36.3803C28.3625 36.1785 28.5126 36.0429 28.5687 35.9706C28.6438 35.8711 28.6798 35.7742 28.6798 35.6764C28.6798 35.5707 28.6478 35.4887 28.5827 35.4306C28.5166 35.3724 28.4275 35.346 28.3114 35.346C28.1983 35.346 28.1082 35.3751 28.0411 35.4359C27.9741 35.4949 27.935 35.5944 27.925 35.7354L27.3824 35.6878C27.4145 35.4244 27.5156 35.2341 27.6857 35.1205C27.8569 35.006 28.0702 34.9478 28.3254 34.9478C28.6067 34.9478 28.826 35.0139 28.9861 35.1469C29.1463 35.2808 29.2274 35.4456 29.2274 35.642C29.2274 35.7565 29.2034 35.8631 29.1573 35.9653C29.1123 36.0667 29.0382 36.1724 28.9401 36.2843C28.874 36.3583 28.7549 36.4649 28.5827 36.6032C28.4115 36.7424 28.3024 36.8331 28.2564 36.8798C28.2113 36.9247 28.1733 36.9688 28.1462 37.0119H29.2274Z" fill="white"/>
<path d="M30.4156 35.3451C30.3496 35.3451 30.2905 35.3636 30.2384 35.3998C30.1884 35.4376 30.1473 35.5037 30.1183 35.5989C30.0813 35.7222 30.0623 35.9319 30.0623 36.2243C30.0623 36.5186 30.0793 36.7195 30.1133 36.8287C30.1463 36.9379 30.1894 37.0119 30.2394 37.0489C30.2915 37.0842 30.3496 37.1027 30.4156 37.1027C30.4817 37.1027 30.5398 37.0842 30.5918 37.0481C30.6439 37.0093 30.6839 36.9441 30.7119 36.849C30.749 36.7265 30.768 36.5186 30.768 36.2243C30.768 35.9319 30.752 35.7301 30.7179 35.62C30.6839 35.5099 30.6409 35.4376 30.5908 35.3998C30.5388 35.3636 30.4817 35.3451 30.4156 35.3451ZM30.4156 34.9478C30.6899 34.9478 30.9051 35.0342 31.0613 35.2068C31.2455 35.4121 31.3376 35.7513 31.3376 36.2243C31.3376 36.6983 31.2445 37.0375 31.0583 37.2445C30.9041 37.4145 30.6899 37.5 30.4156 37.5C30.1393 37.5 29.9161 37.4075 29.7469 37.219C29.5787 37.0313 29.4937 36.6992 29.4937 36.2199C29.4937 35.7486 29.5868 35.4103 29.7729 35.2033C29.9261 35.0324 30.1403 34.9478 30.4156 34.9478Z" fill="white"/>
</svg>
