<svg width="50" height="40" viewBox="0 0 50 40" fill="none" xmlns="http://www.w3.org/2000/svg">
<path d="M48.9597 1.10886H0.839512V32.7122H48.9597V1.10886ZM49.4961 33.2486H0.305176V0.573486H49.4961V33.2486Z" fill="white"/>
<path fill-rule="evenodd" clip-rule="evenodd" d="M25.2609 5.40215H26.6882L25.5389 6.26721L25.9854 7.63768L24.8413 6.79432L23.6972 7.63768L24.1488 6.26721L22.9902 5.40215H24.4103L24.8413 4.06476L25.2609 5.40215Z" fill="white"/>
<path fill-rule="evenodd" clip-rule="evenodd" d="M25.3239 27.5197H26.7492L25.6009 28.3858L26.0464 29.7563L24.9033 28.9119L23.7592 29.7563L24.2098 28.3858L23.0522 27.5197H24.4734L24.9033 26.1834L25.3239 27.5197Z" fill="white"/>
<path fill-rule="evenodd" clip-rule="evenodd" d="M30.782 26.0531H32.2082L31.06 26.9182L31.5065 28.2876L30.3623 27.4453L29.2182 28.2876L29.6668 26.9182L28.5103 26.0531H29.9303L30.3623 24.7178L30.782 26.0531Z" fill="white"/>
<path fill-rule="evenodd" clip-rule="evenodd" d="M30.782 6.85839H32.2082L31.06 7.72346L31.5065 9.09392L30.3623 8.24953L29.2182 9.09392L29.6668 7.72346L28.5103 6.85839H29.9303L30.3623 5.521L30.782 6.85839Z" fill="white"/>
<path fill-rule="evenodd" clip-rule="evenodd" d="M34.8333 10.9222H36.2596L35.1103 11.7863L35.5558 13.1588L34.4127 12.3154L33.2696 13.1588L33.7202 11.7863L32.5596 10.9222H33.9817L34.4127 9.58795L34.8333 10.9222Z" fill="white"/>
<path fill-rule="evenodd" clip-rule="evenodd" d="M34.8333 22.0441H36.2596L35.1103 22.9102L35.5558 24.2806L34.4127 23.4352L33.2696 24.2806L33.7202 22.9102L32.5596 22.0441H33.9817L34.4127 20.7088L34.8333 22.0441Z" fill="white"/>
<path fill-rule="evenodd" clip-rule="evenodd" d="M36.3538 16.3989H37.7801L36.6319 17.265L37.0763 18.6355L35.9322 17.7911L34.7891 18.6355L35.2397 17.265L34.0801 16.3989H35.5022L35.9322 15.0626L36.3538 16.3989Z" fill="white"/>
<path fill-rule="evenodd" clip-rule="evenodd" d="M19.6965 6.8708H21.1228L19.9745 7.7369L20.42 9.10736L19.2759 8.264L18.1317 9.10736L18.5844 7.7369L17.4248 6.8708H18.8449L19.2759 5.53547L19.6965 6.8708Z" fill="white"/>
<path fill-rule="evenodd" clip-rule="evenodd" d="M15.7586 10.9377H17.1849L16.0367 11.8007L16.4811 13.1722L15.338 12.3289L14.1939 13.1722L14.6435 11.8007L13.4849 10.9377H14.907L15.338 9.60035L15.7586 10.9377Z" fill="white"/>
<path fill-rule="evenodd" clip-rule="evenodd" d="M14.2952 16.4134H15.7215L14.5732 17.2774L15.0187 18.6489L13.8745 17.8045L12.7304 18.6489L13.18 17.2774L12.0225 16.4134H13.4436L13.8745 15.076L14.2952 16.4134Z" fill="white"/>
<path fill-rule="evenodd" clip-rule="evenodd" d="M15.7586 22.0585H17.1849L16.0367 22.9246L16.4811 24.2941L15.338 23.4507L14.1939 24.2941L14.6435 22.9246L13.4849 22.0585H14.907L15.338 20.7222L15.7586 22.0585Z" fill="white"/>
<path fill-rule="evenodd" clip-rule="evenodd" d="M19.7532 26.0666H21.1805L20.0312 26.9316L20.4777 28.3031L19.3326 27.4587L18.1895 28.3031L18.6401 26.9316L17.4805 26.0666H18.9016L19.3326 24.7302L19.7532 26.0666Z" fill="white"/>
<path d="M3.1039 36.0143H3.51422V37.8054C3.51422 38.1165 3.47804 38.3635 3.40776 38.5465C3.33748 38.7304 3.21036 38.8793 3.02639 38.994C2.84242 39.1087 2.60161 39.1666 2.30292 39.1666C2.01249 39.1666 1.77478 39.116 1.58978 39.0157C1.40581 38.9165 1.27352 38.7718 1.19497 38.5816C1.11642 38.3925 1.07715 38.1331 1.07715 37.8054V36.0143H1.48643V37.8034C1.48643 38.0721 1.51227 38.2705 1.56187 38.3977C1.61148 38.5258 1.6983 38.624 1.81922 38.6932C1.94118 38.7625 2.09104 38.7966 2.26674 38.7966C2.56853 38.7966 2.78351 38.7284 2.91167 38.5909C3.03982 38.4545 3.1039 38.192 3.1039 37.8034V36.0143Z" fill="white"/>
<path d="M4.22754 39.1139V36.0143H4.64819L6.276 38.4473V36.0143H6.66874V39.1139H6.24809L4.62028 36.6789V39.1139H4.22754Z" fill="white"/>
<path d="M7.46875 36.0143H7.87906V39.1139H7.46875V36.0143Z" fill="white"/>
<path d="M10.6796 36.0143H11.0899V37.8054C11.0899 38.1165 11.0548 38.3635 10.9845 38.5465C10.9142 38.7304 10.7871 38.8793 10.6031 38.994C10.4191 39.1087 10.1773 39.1666 9.8786 39.1666C9.58818 39.1666 9.3515 39.116 9.1665 39.0157C8.9815 38.9165 8.85024 38.7718 8.77065 38.5816C8.69211 38.3925 8.65283 38.1331 8.65283 37.8054V36.0143H9.06314V37.8034C9.06314 38.0721 9.08795 38.2705 9.13756 38.3977C9.1882 38.5258 9.27398 38.624 9.39594 38.6932C9.5179 38.7625 9.66673 38.7966 9.84346 38.7966C10.1442 38.7966 10.3592 38.7284 10.4874 38.5909C10.6155 38.4545 10.6796 38.192 10.6796 37.8034V36.0143Z" fill="white"/>
<path d="M11.8032 39.1139V36.0143H12.2239L13.8517 38.4473V36.0143H14.2455V39.1139H13.8248L12.197 36.6789V39.1139H11.8032Z" fill="white"/>
<path d="M14.9844 39.1139V36.0143H17.2251V36.3802H15.3947V37.329H17.1093V37.6928H15.3947V38.748H17.2974V39.1139H14.9844Z" fill="white"/>
<path d="M18.4614 37.8406H19.5115L19.188 36.9827C19.0898 36.7223 19.0164 36.5073 18.9678 36.3399C18.9285 36.5383 18.8738 36.7357 18.8014 36.9321L18.4614 37.8406ZM17.5674 39.1139L18.757 36.0143H19.1983L20.4675 39.1139H20.0003L19.6386 38.1754H18.3425L18.0025 39.1139H17.5674Z" fill="white"/>
<path d="M21.8584 39.1139V36.0143H24.0991V36.3802H22.2687V37.329H23.9823V37.6928H22.2687V38.748H24.1714V39.1139H21.8584Z" fill="white"/>
<path d="M26.8154 36.0143H27.2257V37.8054C27.2257 38.1165 27.1895 38.3635 27.1192 38.5465C27.049 38.7304 26.9218 38.8793 26.7379 38.994C26.5539 39.1087 26.3131 39.1666 26.0144 39.1666C25.724 39.1666 25.4863 39.116 25.3013 39.0157C25.1173 38.9165 24.985 38.7718 24.9065 38.5816C24.8279 38.3925 24.7876 38.1331 24.7876 37.8054V36.0143H25.1979V37.8034C25.1979 38.0721 25.2227 38.2705 25.2734 38.3977C25.323 38.5258 25.4088 38.624 25.5307 38.6932C25.6527 38.7625 25.8015 38.7966 25.9782 38.7966C26.28 38.7966 26.494 38.7284 26.6221 38.5909C26.7513 38.4545 26.8154 38.192 26.8154 37.8034V36.0143Z" fill="white"/>
<path d="M28.3585 37.3827H29.2401C29.4282 37.3827 29.575 37.3631 29.6804 37.3238C29.7858 37.2856 29.8664 37.2236 29.9212 37.1378C29.976 37.053 30.0039 36.96 30.0039 36.8598C30.0039 36.714 29.9501 36.5931 29.8437 36.4991C29.7372 36.404 29.5698 36.3575 29.3393 36.3575H28.3585V37.3827ZM27.9492 39.1139V36.0143H29.3228C29.5987 36.0143 29.8085 36.0422 29.9532 36.098C30.0969 36.1539 30.2116 36.252 30.2974 36.3926C30.3832 36.5342 30.4266 36.6892 30.4266 36.8598C30.4266 37.0799 30.3553 37.2659 30.2127 37.4158C30.0711 37.5667 29.8509 37.6628 29.5533 37.7042C29.6618 37.7558 29.7445 37.8075 29.8003 37.8581C29.9202 37.9677 30.0339 38.1052 30.1413 38.2695L30.6798 39.1139H30.1641L29.7538 38.469C29.6339 38.2829 29.5357 38.1403 29.4582 38.0421C29.3807 37.9429 29.3114 37.8737 29.2504 37.8344C29.1884 37.7951 29.1264 37.7672 29.0623 37.7517C29.0158 37.7424 28.9404 37.7372 28.835 37.7372H28.3585V39.1139H27.9492Z" fill="white"/>
<path d="M31.4091 37.6101C31.4091 37.9842 31.5094 38.2778 31.7099 38.4927C31.9104 38.7077 32.1625 38.8152 32.4654 38.8152C32.7744 38.8152 33.0286 38.7067 33.2281 38.4896C33.4276 38.2726 33.5268 37.9646 33.5268 37.5657C33.5268 37.3135 33.4844 37.0933 33.3986 36.9052C33.3139 36.7171 33.1888 36.5714 33.0245 36.468C32.8602 36.3647 32.6762 36.313 32.4716 36.313C32.1811 36.313 31.9321 36.4122 31.7223 36.6117C31.5135 36.8112 31.4091 37.144 31.4091 37.6101ZM30.9854 37.6049C30.9854 37.0902 31.1238 36.6872 31.3998 36.3957C31.6768 36.1053 32.0323 35.9595 32.4695 35.9595C32.7558 35.9595 33.0142 36.0278 33.2436 36.1642C33.4731 36.3016 33.6488 36.4918 33.7687 36.7368C33.8896 36.9807 33.9495 37.2577 33.9495 37.5677C33.9495 37.883 33.8865 38.1641 33.7594 38.4121C33.6322 38.6602 33.4524 38.8483 33.2209 38.9754C32.9873 39.1025 32.7372 39.1666 32.4674 39.1666C32.176 39.1666 31.9155 39.0963 31.6851 38.9547C31.4556 38.8142 31.282 38.6219 31.1631 38.378C31.0453 38.1341 30.9854 37.8757 30.9854 37.6049Z" fill="white"/>
<path d="M34.9318 37.4881H35.7328C35.9974 37.4881 36.1855 37.4385 36.2971 37.3403C36.4087 37.2411 36.4645 37.1026 36.4645 36.9238C36.4645 36.7936 36.4315 36.683 36.3663 36.591C36.3002 36.498 36.2144 36.437 36.1069 36.4081C36.0377 36.3895 35.9106 36.3802 35.7245 36.3802H34.9318V37.4881ZM34.5215 39.1139V36.0143H35.6904C35.8961 36.0143 36.0532 36.0247 36.1617 36.0443C36.3147 36.0691 36.4418 36.1177 36.5451 36.189C36.6475 36.2603 36.7301 36.3595 36.7932 36.4887C36.8552 36.6158 36.8872 36.7574 36.8872 36.9104C36.8872 37.174 36.8035 37.3972 36.6351 37.5801C36.4676 37.762 36.1648 37.854 35.7266 37.854H34.9318V39.1139H34.5215Z" fill="white"/>
<path d="M37.4604 39.1139V36.0143H39.7011V36.3802H37.8708V37.329H39.5854V37.6928H37.8708V38.748H39.7735V39.1139H37.4604Z" fill="white"/>
<path d="M40.9375 37.8406H41.9876L41.6641 36.9827C41.5659 36.7223 41.4925 36.5073 41.4439 36.3399C41.4047 36.5383 41.3489 36.7357 41.2776 36.9321L40.9375 37.8406ZM40.0425 39.1139L41.2331 36.0143H41.6744L42.9426 39.1139H42.4754L42.1147 38.1754H40.8187L40.4786 39.1139H40.0425Z" fill="white"/>
<path d="M43.3115 39.1139V36.0143H43.7311L45.3589 38.4473V36.0143H45.7527V39.1139H45.3321L43.7043 36.6789V39.1139H43.3115Z" fill="white"/>
<path d="M47.0332 37.8406H48.0843L47.7608 36.9827C47.6616 36.7223 47.5892 36.5073 47.5406 36.3399C47.5014 36.5383 47.4455 36.7357 47.3742 36.9321L47.0332 37.8406ZM47.9468 35.2764H48.2062C48.1856 35.4531 48.1215 35.5885 48.013 35.6826C47.9055 35.7766 47.7618 35.8242 47.583 35.8242C47.4021 35.8242 47.2585 35.7776 47.151 35.6836C47.0425 35.5895 46.9784 35.4541 46.9577 35.2764H47.2171C47.2368 35.3725 47.276 35.4438 47.335 35.4914C47.3928 35.5389 47.4714 35.5627 47.5706 35.5627C47.6843 35.5627 47.7711 35.5389 47.829 35.4934C47.8879 35.4479 47.9272 35.3756 47.9468 35.2764ZM46.1392 39.1139L47.3298 36.0143H47.7711L49.0392 39.1139H48.5721L48.2104 38.1754H46.9153L46.5743 39.1139H46.1392Z" fill="white"/>
</svg>
