<svg width="31" height="30" viewBox="0 0 31 30" fill="none" xmlns="http://www.w3.org/2000/svg">
<g clip-path="url(#clip0_1_173)">
<path d="M21.6526 1.80277V0.879332C21.6526 0.393532 21.2595 0.000427246 20.7737 0.000427246C20.2879 0.000427246 19.8948 0.393532 19.8948 0.879332V1.80277C14.9748 2.2489 11.106 6.45041 11.106 11.4845C11.106 11.8089 11.2845 12.1068 11.5703 12.2596C11.8561 12.4124 12.202 12.3951 12.4724 12.2158C13.7787 11.3454 15.4644 11.3454 16.7707 12.2158C17.0325 12.3892 17.368 12.4106 17.6513 12.2708L19.0408 11.5755C19.3144 11.4388 19.6014 11.3375 19.8948 11.2697V21.2109H21.6526V11.2695C21.9462 11.3373 22.2332 11.4387 22.5066 11.5755L23.8961 12.2707C24.1794 12.4123 24.5736 12.3917 24.8353 12.2157C26.1416 11.3454 27.8273 11.3454 29.1336 12.2157C29.4057 12.3972 29.7535 12.4109 30.0357 12.2595C30.3215 12.1068 30.5 11.8089 30.5 11.4844C30.5 6.4503 26.5725 2.24878 21.6526 1.80277Z" fill="white"/>
<path d="M27.4777 26.3841C28.2024 26.167 28.7422 25.5203 28.7422 24.7263C28.7422 23.7572 27.9534 22.9685 26.9844 22.9685H8.41077L3.66364 16.6404C3.07395 15.8521 1.96928 15.715 1.20464 16.2885C0.426688 16.8728 0.268368 17.9721 0.852723 18.7501L6.12609 25.7811C6.35385 26.0854 6.68777 26.2624 7.0463 26.3689L5.86693 28.7276C5.64978 29.1619 5.82574 29.6898 6.26004 29.9069C6.69873 30.1247 7.22337 29.9445 7.43929 29.5138L8.95411 26.484H25.5623L27.0771 29.5138C27.2931 29.9445 27.8178 30.1247 28.2564 29.9069C28.6907 29.6897 28.8666 29.1619 28.6495 28.7276L27.4777 26.3841Z" fill="white"/>
<path d="M15.5004 17.6952H6.653L6.65259 17.6953L7.971 19.4529H15.5004C15.9853 19.4529 16.3793 19.8469 16.3793 20.3318V21.2107H18.1371V20.3318C18.1371 18.878 16.9543 17.6952 15.5004 17.6952Z" fill="white"/>
</g>
<defs>
<clipPath id="clip0_1_173">
<rect width="30" height="30" fill="white" transform="translate(0.5)"/>
</clipPath>
</defs>
</svg>
